
        <svg xmlns="http://www.w3.org/2000/svg" xmlns:xlink="http://www.w3.org/1999/xlink" version="1.1" width="3238.292837239718" 
        height="2579.890757847989" viewBox="0 0 3238.292837239718 2579.890757847989">
			<rect fill="#000000" width="3238.292837239718" height="2579.890757847989"/>
			<g transform="scale(11.914641861985913) translate(10, 10)">
				<defs id="SvgjsDefs9465"><linearGradient id="SvgjsLinearGradient9472"><stop id="SvgjsStop9473" stop-color="#fe8dc6" offset="0"></stop><stop id="SvgjsStop9474" stop-color="#fed1c7" offset="1"></stop></linearGradient><linearGradient id="SvgjsLinearGradient9475"><stop id="SvgjsStop9476" stop-color="#fe8dc6" offset="0"></stop><stop id="SvgjsStop9477" stop-color="#fed1c7" offset="1"></stop></linearGradient></defs><g id="SvgjsG9466" featureKey="monogramFeature-0" transform="matrix(2.058758278187792,0,0,2.058758278187792,82.95751768118578,-30.217110015305966)" fill="url(#SvgjsLinearGradient9472)"><path d="M1.86 33.6 c-1.68 0.96 -1.92 -0.36 -0.18 -1.32 c4.02 -2.22 10.2 -5.4 16.38 -7.5 c1.74 -5.82 2.82 -8.82 3.06 -9.36 c0.36 -0.96 1.62 -1.08 1.14 0.18 c-0.24 0.6 -1.38 4.02 -2.76 8.7 c3.12 -0.96 6.18 -1.56 8.88 -1.56 c8.58 0 13.32 1.8 13.32 6.84 c0 5.88 -6.9 10.92 -13.68 14.28 c-2.94 1.5 -10.2 5.1 -15.78 7.86 l-1.2 4.68 l18.06 -0.78 c1.74 -0.06 2.16 1.44 0.72 1.5 c-0.96 0.06 -11.22 0.48 -19.14 0.72 c-1.74 6.96 -3.12 12.66 -3.42 14.22 c-0.54 2.52 -0.54 2.76 -0.18 2.58 s0.6 0.12 -0.54 1.38 c-1.08 1.2 -1.68 0.54 -1.14 -1.62 l4.14 -16.5 c-3.9 0.12 -7.32 0.24 -7.8 0.18 c-1.56 -0.06 -2.7 -1.44 -0.48 -2.4 c1.14 -0.48 5.1 -2.46 10.08 -4.98 l1.8 -7.5 c1.68 -6.9 3.18 -12.42 4.38 -16.68 c-5.64 1.98 -11.58 4.8 -15.66 7.08 z M14.28 43.260000000000005 l-1.62 6.72 l13.98 -7.14 c9.42 -4.74 14.04 -9.48 14.04 -13.56 c0 -3.3 -4.86 -5.16 -12.3 -5.16 c-2.52 0 -5.88 0.78 -9.42 1.92 c-1.5 5.1 -3.24 11.34 -4.68 17.22 z M9.9 56.46 l1.02 -4.14 c-2.52 1.26 -4.62 2.22 -5.52 2.58 c-3.06 1.26 -3.42 1.74 -1.14 1.74 c0.6 0 2.94 -0.06 5.64 -0.18 z"></path></g><g id="SvgjsG9467" featureKey="nameFeature-0" transform="matrix(0.8285240556842463,0,0,0.8285240556842463,-2.81698068312748,138.05771291207327)" fill="#ffffff"><path d="M17.6 28.92 l5.48 10.38 c0.22 0.42 0.02 0.7 -0.44 0.7 l-2.06 0 c-0.32 0 -0.54 -0.14 -0.7 -0.44 l-5.36 -10.28 l-0.58 0 l-7.42 0 l0 10.12 c0 0.36 -0.24 0.6 -0.6 0.6 l-1.92 0 c-0.36 0 -0.6 -0.24 -0.6 -0.6 l0 -26.8 c0 -0.36 0.24 -0.6 0.6 -0.6 l9.94 0 c7.04 0 9.76 3.12 9.76 8.64 c0 4.44 -1.76 7.32 -6.1 8.28 z M6.52 14.879999999999999 l0 11.52 l7.62 0 c3.84 0 6.52 -1.08 6.52 -5.76 s-2.68 -5.76 -6.52 -5.76 l-7.62 0 z M56.303 37.12 c0.36 0 0.6 0.24 0.6 0.6 l0 1.68 c0 0.36 -0.24 0.6 -0.6 0.6 l-17 0 c-0.36 0 -0.6 -0.24 -0.6 -0.6 l0 -26.8 c0 -0.36 0.24 -0.6 0.6 -0.6 l16.96 0 c0.36 0 0.6 0.24 0.6 0.6 l0 1.68 c0 0.36 -0.24 0.6 -0.6 0.6 l-14.44 0 l0 8.96 l13.36 0 c0.36 0 0.6 0.24 0.6 0.6 l0 1.68 c0 0.36 -0.24 0.6 -0.6 0.6 l-13.36 0 l0 10.4 l14.48 0 z M91.606 12.48 c0.14 -0.36 0.36 -0.48 0.68 -0.48 l1.92 0 c0.44 0 0.64 0.28 0.48 0.68 l-10.24 26.84 c-0.12 0.32 -0.4 0.48 -0.72 0.48 l-2 0 c-0.32 0 -0.6 -0.16 -0.72 -0.48 l-10.24 -26.84 c-0.16 -0.4 0.04 -0.68 0.48 -0.68 l1.92 0 c0.32 0 0.54 0.12 0.68 0.48 l8.88 23.72 z M126.849 37.12 c0.36 0 0.6 0.24 0.6 0.6 l0 1.68 c0 0.36 -0.24 0.6 -0.6 0.6 l-17 0 c-0.36 0 -0.6 -0.24 -0.6 -0.6 l0 -26.8 c0 -0.36 0.24 -0.6 0.6 -0.6 l16.96 0 c0.36 0 0.6 0.24 0.6 0.6 l0 1.68 c0 0.36 -0.24 0.6 -0.6 0.6 l-14.44 0 l0 8.96 l13.36 0 c0.36 0 0.6 0.24 0.6 0.6 l0 1.68 c0 0.36 -0.24 0.6 -0.6 0.6 l-13.36 0 l0 10.4 l14.48 0 z M165.232 39.32 c0.16 0.4 -0.04 0.68 -0.48 0.68 l-1.92 0 c-0.32 0 -0.54 -0.12 -0.68 -0.48 l-2.14 -5.72 l-13.48 0 l-2.14 5.72 c-0.14 0.36 -0.36 0.48 -0.68 0.48 l-1.92 0 c-0.44 0 -0.64 -0.28 -0.48 -0.68 l10.24 -26.84 c0.12 -0.32 0.4 -0.48 0.72 -0.48 l2 0 c0.32 0 0.6 0.16 0.72 0.48 z M147.572 31 l11.4 0 l-5.7 -15.2 z M197.19500000000002 37.12 c0.36 0 0.6 0.24 0.6 0.6 l0 1.68 c0 0.36 -0.24 0.6 -0.6 0.6 l-16.8 0 c-0.36 0 -0.6 -0.24 -0.6 -0.6 l0 -26.8 c0 -0.36 0.24 -0.6 0.6 -0.6 l1.92 0 c0.36 0 0.6 0.24 0.6 0.6 l0 24.52 l14.28 0 z M233.89800000000002 12 c0.36 0 0.6 0.24 0.6 0.6 l0 16.08 c0 7.92 -4.14 11.9 -11.2 11.9 s-11.2 -3.98 -11.2 -11.9 l0 -16.08 c0 -0.36 0.24 -0.6 0.6 -0.6 l1.92 0 c0.36 0 0.6 0.24 0.6 0.6 l0 16.08 c0 6.16 3.22 8.98 8.08 8.98 s8.08 -2.82 8.08 -8.98 l0 -16.08 c0 -0.36 0.24 -0.6 0.6 -0.6 l1.92 0 z M269.78100000000006 39.28 c0.24 0.4 0.08 0.72 -0.4 0.72 l-2.04 0 c-0.32 0 -0.56 -0.12 -0.72 -0.4 l-7.32 -11.3 l-7.32 11.3 c-0.16 0.28 -0.4 0.4 -0.72 0.4 l-2.04 0 c-0.48 0 -0.64 -0.32 -0.4 -0.72 l8.8 -13.58 l-8.4 -12.98 c-0.24 -0.4 -0.08 -0.72 0.4 -0.72 l2.04 0 c0.32 0 0.56 0.12 0.72 0.4 l6.92 10.7 l6.92 -10.7 c0.16 -0.28 0.4 -0.4 0.72 -0.4 l2.04 0 c0.48 0 0.64 0.32 0.4 0.72 l-8.4 12.98 z M306.78400000000005 12 c0.48 0 0.66 0.32 0.4 0.72 l-10.62 16.44 l0 10.24 c0 0.36 -0.24 0.6 -0.6 0.6 l-1.92 0 c-0.36 0 -0.6 -0.24 -0.6 -0.6 l0 -10.24 l-10.62 -16.44 c-0.26 -0.4 -0.08 -0.72 0.4 -0.72 l2.26 0 c0.32 0 0.54 0.12 0.72 0.4 l8.8 13.64 l8.8 -13.64 c0.18 -0.28 0.4 -0.4 0.72 -0.4 l2.26 0 z"></path></g><g id="SvgjsG9468" featureKey="sloganFeature-0" transform="matrix(0.31954823488389666,0,0,0.31954823488389666,9.329076349163804,190.08084113283482)" fill="url(#SvgjsLinearGradient9475)"><path d="M9.5508 20 l-3.5742 -6.2109 l-1.9336 0 l0 6.2109 l-1.9434 0 l0 -13.809 l4.6484 0 c2.8906 0 4.209 1.7676 4.209 3.9355 c0 1.9238 -1.1328 3.2617 -3.0273 3.584 l3.8965 6.2891 l-2.2754 0 z M4.043 7.871 l0 4.4336 l2.4414 0 c1.7969 0 2.6074 -0.89844 2.6074 -2.207 c0 -1.2891 -0.81055 -2.2266 -2.6074 -2.2266 l-2.4414 0 z M32.797632421875 7.939 l-5.5273 0 l0 4.2969 l4.873 0 l0 1.7383 l-4.873 0 l0 4.2676 l5.5273 0 l0 1.7578 l-7.5098 0 l0 -13.809 l7.5098 0 l0 1.748 z M55.272652343749996 6.191000000000001 l2.0508 0 l-5.0781 13.809 l-2.0313 0 l-5.0586 -13.809 l2.041 0 l4.043 11.426 z M78.099878515625 7.939 l-5.5273 0 l0 4.2969 l4.873 0 l0 1.7383 l-4.873 0 l0 4.2676 l5.5273 0 l0 1.7578 l-7.5098 0 l0 -13.809 l7.5098 0 l0 1.748 z M100.9558984375 20 l-1.1523 -3.2227 l-6.1719 0 l-1.1523 3.2227 l-2.0215 0 l5.0879 -13.809 l2.3438 0 l5.0879 13.809 l-2.0215 0 z M94.2372984375 15.0781 l4.9609 0 l-2.4805 -6.9629 z M118.187287109375 18.2422 l4.7168 0 l0 1.7578 l-6.6602 0 l0 -13.809 l1.9434 0 l0 12.051 z M161.340751953125 6.191000000000001 l-4.541 7.2266 l0 6.582 l-1.9629 0 l0 -6.5723 l-4.5508 -7.2363 l2.207 0 l3.3203 5.4785 l3.3301 -5.4785 l2.1973 0 z M180.408228125 20.18555 c-3.916 0 -6.9043 -2.6953 -6.9043 -7.0996 c0 -4.3945 2.9883 -7.0801 6.9043 -7.0801 c3.8965 0 6.8945 2.6855 6.8945 7.0801 c0 4.4043 -2.998 7.0996 -6.8945 7.0996 z M180.408228125 18.3594 c2.7637 0 4.9512 -1.9141 4.9512 -5.2734 c0 -3.3301 -2.1875 -5.2441 -4.9512 -5.2441 c-2.7734 0 -4.9707 1.9141 -4.9707 5.2441 c0 3.3594 2.1973 5.2734 4.9707 5.2734 z M205.969451171875 20.18555 c-2.8613 0 -5.0781 -1.6895 -5.0781 -4.8047 l0 -9.1895 l1.9434 0 l0 8.916 c0 2.2754 1.3672 3.3203 3.1348 3.3203 s3.1641 -1.0547 3.1641 -3.3203 l0 -8.916 l1.9434 0 l0 9.1895 c0 3.1152 -2.2266 4.8047 -5.1074 4.8047 z M233.07374921875 20 l-3.5742 -6.2109 l-1.9336 0 l0 6.2109 l-1.9434 0 l0 -13.809 l4.6484 0 c2.8906 0 4.209 1.7676 4.209 3.9355 c0 1.9238 -1.1328 3.2617 -3.0273 3.584 l3.8965 6.2891 l-2.2754 0 z M227.56594921875 7.871 l0 4.4336 l2.4414 0 c1.7969 0 2.6074 -0.89844 2.6074 -2.207 c0 -1.2891 -0.81055 -2.2266 -2.6074 -2.2266 l-2.4414 0 z M266.5791328125 18.2422 l4.7168 0 l0 1.7578 l-6.6602 0 l0 -13.809 l1.9434 0 l0 12.051 z M284.562246484375 20 l0 -13.809 l1.9434 0 l0 13.809 l-1.9434 0 z M307.22312890625 20.18555 c-3.8672 0 -6.8359 -2.6465 -6.8359 -7.0508 c0 -4.4434 2.9883 -7.1289 6.9043 -7.1289 c2.5391 0 4.7168 1.1133 5.9082 3.2227 l-1.7188 0.91797 c-0.86914 -1.6211 -2.4219 -2.373 -4.1895 -2.373 c-2.793 0 -4.9512 1.8945 -4.9512 5.3223 c0 3.3789 2.1094 5.3418 5.0195 5.3418 c2.3438 0 4.1797 -1.3184 4.502 -3.9355 l-4.5117 0 l0 -1.6211 l6.3965 0 l0 7.1191 l-1.582 0 l0 -2.4805 c-0.9082 1.6895 -2.6172 2.666 -4.9414 2.666 z M336.661767578125 6.191000000000001 l1.9434 0 l0 13.809 l-1.9434 0 l0 -6.0547 l-6.7871 0 l0 6.0547 l-1.9629 0 l0 -13.809 l1.9629 0 l0 6.0254 l6.7871 0 l0 -6.0254 z M360.79685 6.191000000000001 l0 1.748 l-3.4961 0 l0 12.061 l-1.9238 0 l0 -12.061 l-3.5059 0 l0 -1.748 l8.9258 0 z M392.31980859375 20 l-3.8965 -13.809 l2.0215 0 l3.1836 11.23 l3.3789 -11.23 l1.6992 0 l3.3789 11.23 l3.1934 -11.23 l2.0117 0 l-3.8965 13.809 l-2.334 0 l-3.2031 -10.273 l-3.2031 10.273 l-2.334 0 z M420.664297265625 20 l0 -13.809 l1.9434 0 l0 13.809 l-1.9434 0 z M444.7997796875 6.191000000000001 l0 1.748 l-3.4961 0 l0 12.061 l-1.9238 0 l0 -12.061 l-3.5059 0 l0 -1.748 l8.9258 0 z M466.806787109375 6.191000000000001 l1.9434 0 l0 13.809 l-1.9434 0 l0 -6.0547 l-6.7871 0 l0 6.0547 l-1.9629 0 l0 -13.809 l1.9629 0 l0 6.0254 l6.7871 0 l0 -6.0254 z M508.348720703125 20 l-1.1523 -3.2227 l-6.1719 0 l-1.1523 3.2227 l-2.0215 0 l5.0879 -13.809 l2.3438 0 l5.0879 13.809 l-2.0215 0 z M501.630120703125 15.0781 l4.9609 0 l-2.4805 -6.9629 z M531.087909375 20 l-3.5742 -6.2109 l-1.9336 0 l0 6.2109 l-1.9434 0 l0 -13.809 l4.6484 0 c2.8906 0 4.209 1.7676 4.209 3.9355 c0 1.9238 -1.1328 3.2617 -3.0273 3.584 l3.8965 6.2891 l-2.2754 0 z M525.580109375 7.871 l0 4.4336 l2.4414 0 c1.7969 0 2.6074 -0.89844 2.6074 -2.207 c0 -1.2891 -0.81055 -2.2266 -2.6074 -2.2266 l-2.4414 0 z M554.178441796875 6.191000000000001 l0 1.748 l-3.4961 0 l0 12.061 l-1.9238 0 l0 -12.061 l-3.5059 0 l0 -1.748 l8.9258 0 z M598.074400390625 20 l-1.9043 0 l-0.9082 -11.23 l-4.2676 11.23 l-1.1816 0 l-4.2383 -11.191 l-0.92773 11.191 l-1.9141 0 l1.0645 -13.809 l2.627 0 l3.9746 10.439 l3.9941 -10.439 l2.627 0 z M619.8857671875 7.939 l-5.5273 0 l0 4.2969 l4.873 0 l0 1.7383 l-4.873 0 l0 4.2676 l5.5273 0 l0 1.7578 l-7.5098 0 l0 -13.809 l7.5098 0 l0 1.748 z M633.806387109375 20 l0 -13.809 l4.5508 0 c4.248 0 6.4063 2.8516 6.4063 6.8945 c0 4.0723 -2.1582 6.9141 -6.4063 6.9141 l-4.5508 0 z M635.749787109375 18.2422 l2.5293 0 c3.0176 0 4.4531 -2.002 4.4531 -5.1563 c0 -3.1348 -1.4355 -5.1465 -4.4531 -5.1465 l-2.5293 0 l0 10.303 z M658.68407265625 20 l0 -13.809 l1.9434 0 l0 13.809 l-1.9434 0 z M681.413355078125 20.18555 c-3.916 0 -6.9043 -2.6855 -6.9043 -7.0996 c0 -4.3945 2.9883 -7.0801 6.9043 -7.0801 c2.793 0 5.1074 1.3867 6.1719 3.7598 l-1.7969 0.71289 c-0.80078 -1.6895 -2.4316 -2.6367 -4.375 -2.6367 c-2.7734 0 -4.9707 1.9141 -4.9707 5.2441 c0 3.3496 2.1973 5.2637 4.9707 5.2637 c1.9434 0 3.5742 -0.94727 4.375 -2.6367 l1.7969 0.72266 c-1.0645 2.3633 -3.3789 3.75 -6.1719 3.75 z M710.050625 20 l-1.1523 -3.2227 l-6.1719 0 l-1.1523 3.2227 l-2.0215 0 l5.0879 -13.809 l2.3438 0 l5.0879 13.809 l-2.0215 0 z M703.332025 15.0781 l4.9609 0 l-2.4805 -6.9629 z M727.282013671875 18.2422 l4.7168 0 l0 1.7578 l-6.6602 0 l0 -13.809 l1.9434 0 l0 12.051 z"></path></g>
			</g>
		</svg>
	