
        <svg xmlns="http://www.w3.org/2000/svg" xmlns:xlink="http://www.w3.org/1999/xlink" version="1.1" width="3239.6086049197606" 
        height="2612.0415468111187" viewBox="0 0 3239.6086049197606 2612.0415468111187">
			
			<g transform="scale(11.980430245988034) translate(10, 10)">
				<defs id="SvgjsDefs1628"><linearGradient id="SvgjsLinearGradient1635"><stop id="SvgjsStop1636" stop-color="#fe8dc6" offset="0"></stop><stop id="SvgjsStop1637" stop-color="#fed1c7" offset="1"></stop></linearGradient><linearGradient id="SvgjsLinearGradient1638"><stop id="SvgjsStop1639" stop-color="#fe8dc6" offset="0"></stop><stop id="SvgjsStop1640" stop-color="#fed1c7" offset="1"></stop></linearGradient><linearGradient id="SvgjsLinearGradient1641"><stop id="SvgjsStop1642" stop-color="#fe8dc6" offset="0"></stop><stop id="SvgjsStop1643" stop-color="#fed1c7" offset="1"></stop></linearGradient></defs><g id="SvgjsG1629" featureKey="monogramFeature-0" transform="matrix(2.0474529763420324,0,0,2.0474529763420324,82.95775088894676,-30.05117817510457)" fill="url(#SvgjsLinearGradient1635)"><path d="M1.86 33.6 c-1.68 0.96 -1.92 -0.36 -0.18 -1.32 c4.02 -2.22 10.2 -5.4 16.38 -7.5 c1.74 -5.82 2.82 -8.82 3.06 -9.36 c0.36 -0.96 1.62 -1.08 1.14 0.18 c-0.24 0.6 -1.38 4.02 -2.76 8.7 c3.12 -0.96 6.18 -1.56 8.88 -1.56 c8.58 0 13.32 1.8 13.32 6.84 c0 5.88 -6.9 10.92 -13.68 14.28 c-2.94 1.5 -10.2 5.1 -15.78 7.86 l-1.2 4.68 l18.06 -0.78 c1.74 -0.06 2.16 1.44 0.72 1.5 c-0.96 0.06 -11.22 0.48 -19.14 0.72 c-1.74 6.96 -3.12 12.66 -3.42 14.22 c-0.54 2.52 -0.54 2.76 -0.18 2.58 s0.6 0.12 -0.54 1.38 c-1.08 1.2 -1.68 0.54 -1.14 -1.62 l4.14 -16.5 c-3.9 0.12 -7.32 0.24 -7.8 0.18 c-1.56 -0.06 -2.7 -1.44 -0.48 -2.4 c1.14 -0.48 5.1 -2.46 10.08 -4.98 l1.8 -7.5 c1.68 -6.9 3.18 -12.42 4.38 -16.68 c-5.64 1.98 -11.58 4.8 -15.66 7.08 z M14.28 43.260000000000005 l-1.62 6.72 l13.98 -7.14 c9.42 -4.74 14.04 -9.48 14.04 -13.56 c0 -3.3 -4.86 -5.16 -12.3 -5.16 c-2.52 0 -5.88 0.78 -9.42 1.92 c-1.5 5.1 -3.24 11.34 -4.68 17.22 z M9.9 56.46 l1.02 -4.14 c-2.52 1.26 -4.62 2.22 -5.52 2.58 c-3.06 1.26 -3.42 1.74 -1.14 1.74 c0.6 0 2.94 -0.06 5.64 -0.18 z"></path></g><g id="SvgjsG1630" featureKey="nameFeature-0" transform="matrix(0.8239742816860025,0,0,0.8239742816860025,-2.8015114576080546,137.11231019137418)" fill="url(#SvgjsLinearGradient1638)"><path d="M17.6 28.92 l5.48 10.38 c0.22 0.42 0.02 0.7 -0.44 0.7 l-2.06 0 c-0.32 0 -0.54 -0.14 -0.7 -0.44 l-5.36 -10.28 l-0.58 0 l-7.42 0 l0 10.12 c0 0.36 -0.24 0.6 -0.6 0.6 l-1.92 0 c-0.36 0 -0.6 -0.24 -0.6 -0.6 l0 -26.8 c0 -0.36 0.24 -0.6 0.6 -0.6 l9.94 0 c7.04 0 9.76 3.12 9.76 8.64 c0 4.44 -1.76 7.32 -6.1 8.28 z M6.52 14.879999999999999 l0 11.52 l7.62 0 c3.84 0 6.52 -1.08 6.52 -5.76 s-2.68 -5.76 -6.52 -5.76 l-7.62 0 z M56.303 37.12 c0.36 0 0.6 0.24 0.6 0.6 l0 1.68 c0 0.36 -0.24 0.6 -0.6 0.6 l-17 0 c-0.36 0 -0.6 -0.24 -0.6 -0.6 l0 -26.8 c0 -0.36 0.24 -0.6 0.6 -0.6 l16.96 0 c0.36 0 0.6 0.24 0.6 0.6 l0 1.68 c0 0.36 -0.24 0.6 -0.6 0.6 l-14.44 0 l0 8.96 l13.36 0 c0.36 0 0.6 0.24 0.6 0.6 l0 1.68 c0 0.36 -0.24 0.6 -0.6 0.6 l-13.36 0 l0 10.4 l14.48 0 z M91.606 12.48 c0.14 -0.36 0.36 -0.48 0.68 -0.48 l1.92 0 c0.44 0 0.64 0.28 0.48 0.68 l-10.24 26.84 c-0.12 0.32 -0.4 0.48 -0.72 0.48 l-2 0 c-0.32 0 -0.6 -0.16 -0.72 -0.48 l-10.24 -26.84 c-0.16 -0.4 0.04 -0.68 0.48 -0.68 l1.92 0 c0.32 0 0.54 0.12 0.68 0.48 l8.88 23.72 z M126.849 37.12 c0.36 0 0.6 0.24 0.6 0.6 l0 1.68 c0 0.36 -0.24 0.6 -0.6 0.6 l-17 0 c-0.36 0 -0.6 -0.24 -0.6 -0.6 l0 -26.8 c0 -0.36 0.24 -0.6 0.6 -0.6 l16.96 0 c0.36 0 0.6 0.24 0.6 0.6 l0 1.68 c0 0.36 -0.24 0.6 -0.6 0.6 l-14.44 0 l0 8.96 l13.36 0 c0.36 0 0.6 0.24 0.6 0.6 l0 1.68 c0 0.36 -0.24 0.6 -0.6 0.6 l-13.36 0 l0 10.4 l14.48 0 z M165.232 39.32 c0.16 0.4 -0.04 0.68 -0.48 0.68 l-1.92 0 c-0.32 0 -0.54 -0.12 -0.68 -0.48 l-2.14 -5.72 l-13.48 0 l-2.14 5.72 c-0.14 0.36 -0.36 0.48 -0.68 0.48 l-1.92 0 c-0.44 0 -0.64 -0.28 -0.48 -0.68 l10.24 -26.84 c0.12 -0.32 0.4 -0.48 0.72 -0.48 l2 0 c0.32 0 0.6 0.16 0.72 0.48 z M147.572 31 l11.4 0 l-5.7 -15.2 z M197.19500000000002 37.12 c0.36 0 0.6 0.24 0.6 0.6 l0 1.68 c0 0.36 -0.24 0.6 -0.6 0.6 l-16.8 0 c-0.36 0 -0.6 -0.24 -0.6 -0.6 l0 -26.8 c0 -0.36 0.24 -0.6 0.6 -0.6 l1.92 0 c0.36 0 0.6 0.24 0.6 0.6 l0 24.52 l14.28 0 z M233.89800000000002 12 c0.36 0 0.6 0.24 0.6 0.6 l0 16.08 c0 7.92 -4.14 11.9 -11.2 11.9 s-11.2 -3.98 -11.2 -11.9 l0 -16.08 c0 -0.36 0.24 -0.6 0.6 -0.6 l1.92 0 c0.36 0 0.6 0.24 0.6 0.6 l0 16.08 c0 6.16 3.22 8.98 8.08 8.98 s8.08 -2.82 8.08 -8.98 l0 -16.08 c0 -0.36 0.24 -0.6 0.6 -0.6 l1.92 0 z M269.78100000000006 39.28 c0.24 0.4 0.08 0.72 -0.4 0.72 l-2.04 0 c-0.32 0 -0.56 -0.12 -0.72 -0.4 l-7.32 -11.3 l-7.32 11.3 c-0.16 0.28 -0.4 0.4 -0.72 0.4 l-2.04 0 c-0.48 0 -0.64 -0.32 -0.4 -0.72 l8.8 -13.58 l-8.4 -12.98 c-0.24 -0.4 -0.08 -0.72 0.4 -0.72 l2.04 0 c0.32 0 0.56 0.12 0.72 0.4 l6.92 10.7 l6.92 -10.7 c0.16 -0.28 0.4 -0.4 0.72 -0.4 l2.04 0 c0.48 0 0.64 0.32 0.4 0.72 l-8.4 12.98 z M306.78400000000005 12 c0.48 0 0.66 0.32 0.4 0.72 l-10.62 16.44 l0 10.24 c0 0.36 -0.24 0.6 -0.6 0.6 l-1.92 0 c-0.36 0 -0.6 -0.24 -0.6 -0.6 l0 -10.24 l-10.62 -16.44 c-0.26 -0.4 -0.08 -0.72 0.4 -0.72 l2.26 0 c0.32 0 0.54 0.12 0.72 0.4 l8.8 13.64 l8.8 -13.64 c0.18 -0.28 0.4 -0.4 0.72 -0.4 l2.26 0 z"></path></g><g id="SvgjsG1631" featureKey="sloganFeature-0" transform="matrix(0.4862066915435505,0,0,0.4862066915435505,6.173448948953948,188.16055354272066)" fill="url(#SvgjsLinearGradient1641)"><path d="M8.8 14.46 l2.74 5.19 c0.11 0.21 0.01 0.35 -0.22 0.35 l-1.03 0 c-0.16 0 -0.27 -0.07 -0.35 -0.22 l-2.68 -5.14 l-0.29 0 l-3.71 0 l0 5.06 c0 0.18 -0.12 0.3 -0.3 0.3 l-0.96 0 c-0.18 0 -0.3 -0.12 -0.3 -0.3 l0 -13.4 c0 -0.18 0.12 -0.3 0.3 -0.3 l4.97 0 c3.52 0 4.88 1.56 4.88 4.32 c0 2.22 -0.88 3.66 -3.05 4.14 z M3.26 7.4399999999999995 l0 5.76 l3.81 0 c1.92 0 3.26 -0.54 3.26 -2.88 s-1.34 -2.88 -3.26 -2.88 l-3.81 0 z M25.096 18.56 c0.18 0 0.3 0.12 0.3 0.3 l0 0.84 c0 0.18 -0.12 0.3 -0.3 0.3 l-8.5 0 c-0.18 0 -0.3 -0.12 -0.3 -0.3 l0 -13.4 c0 -0.18 0.12 -0.3 0.3 -0.3 l8.48 0 c0.18 0 0.3 0.12 0.3 0.3 l0 0.84 c0 0.18 -0.12 0.3 -0.3 0.3 l-7.22 0 l0 4.48 l6.68 0 c0.18 0 0.3 0.12 0.3 0.3 l0 0.84 c0 0.18 -0.12 0.3 -0.3 0.3 l-6.68 0 l0 5.2 l7.24 0 z M39.692 6.24 c0.07 -0.18 0.18 -0.24 0.34 -0.24 l0.96 0 c0.22 0 0.32 0.14 0.24 0.34 l-5.12 13.42 c-0.06 0.16 -0.2 0.24 -0.36 0.24 l-1 0 c-0.16 0 -0.3 -0.08 -0.36 -0.24 l-5.12 -13.42 c-0.08 -0.2 0.02 -0.34 0.24 -0.34 l0.96 0 c0.16 0 0.27 0.06 0.34 0.24 l4.44 11.86 z M54.258 18.56 c0.18 0 0.3 0.12 0.3 0.3 l0 0.84 c0 0.18 -0.12 0.3 -0.3 0.3 l-8.5 0 c-0.18 0 -0.3 -0.12 -0.3 -0.3 l0 -13.4 c0 -0.18 0.12 -0.3 0.3 -0.3 l8.48 0 c0.18 0 0.3 0.12 0.3 0.3 l0 0.84 c0 0.18 -0.12 0.3 -0.3 0.3 l-7.22 0 l0 4.48 l6.68 0 c0.18 0 0.3 0.12 0.3 0.3 l0 0.84 c0 0.18 -0.12 0.3 -0.3 0.3 l-6.68 0 l0 5.2 l7.24 0 z M70.394 19.66 c0.08 0.2 -0.02 0.34 -0.24 0.34 l-0.96 0 c-0.16 0 -0.27 -0.06 -0.34 -0.24 l-1.07 -2.86 l-6.74 0 l-1.07 2.86 c-0.07 0.18 -0.18 0.24 -0.34 0.24 l-0.96 0 c-0.22 0 -0.32 -0.14 -0.24 -0.34 l5.12 -13.42 c0.06 -0.16 0.2 -0.24 0.36 -0.24 l1 0 c0.16 0 0.3 0.08 0.36 0.24 z M61.56400000000001 15.5 l5.7 0 l-2.85 -7.6 z M83.32000000000001 18.56 c0.18 0 0.3 0.12 0.3 0.3 l0 0.84 c0 0.18 -0.12 0.3 -0.3 0.3 l-8.4 0 c-0.18 0 -0.3 -0.12 -0.3 -0.3 l0 -13.4 c0 -0.18 0.12 -0.3 0.3 -0.3 l0.96 0 c0.18 0 0.3 0.12 0.3 0.3 l0 12.26 l7.14 0 z M108.602 6 c0.24 0 0.33 0.16 0.2 0.36 l-5.31 8.22 l0 5.12 c0 0.18 -0.12 0.3 -0.3 0.3 l-0.96 0 c-0.18 0 -0.3 -0.12 -0.3 -0.3 l0 -5.12 l-5.31 -8.22 c-0.13 -0.2 -0.04 -0.36 0.2 -0.36 l1.13 0 c0.16 0 0.27 0.06 0.36 0.2 l4.4 6.82 l4.4 -6.82 c0.09 -0.14 0.2 -0.2 0.36 -0.2 l1.13 0 z M119.71800000000002 20.26 c-3.96 0 -7.16 -3.2 -7.16 -7.2 c0 -4.02 3.2 -7.22 7.16 -7.22 c3.94 0 7.14 3.2 7.14 7.22 c0 4 -3.2 7.2 -7.14 7.2 z M119.71800000000002 18.8 c3.14 0 5.62 -2.54 5.62 -5.74 c0 -3.22 -2.48 -5.76 -5.62 -5.76 c-3.16 0 -5.64 2.54 -5.64 5.76 c0 3.2 2.48 5.74 5.64 5.74 z M142.154 6 c0.18 0 0.3 0.12 0.3 0.3 l0 8.04 c0 3.96 -2.07 5.95 -5.6 5.95 s-5.6 -1.99 -5.6 -5.95 l0 -8.04 c0 -0.18 0.12 -0.3 0.3 -0.3 l0.96 0 c0.18 0 0.3 0.12 0.3 0.3 l0 8.04 c0 3.08 1.61 4.49 4.04 4.49 s4.04 -1.41 4.04 -4.49 l0 -8.04 c0 -0.18 0.12 -0.3 0.3 -0.3 l0.96 0 z M154.35000000000002 14.46 l2.74 5.19 c0.11 0.21 0.01 0.35 -0.22 0.35 l-1.03 0 c-0.16 0 -0.27 -0.07 -0.35 -0.22 l-2.68 -5.14 l-0.29 0 l-3.71 0 l0 5.06 c0 0.18 -0.12 0.3 -0.3 0.3 l-0.96 0 c-0.18 0 -0.3 -0.12 -0.3 -0.3 l0 -13.4 c0 -0.18 0.12 -0.3 0.3 -0.3 l4.97 0 c3.52 0 4.88 1.56 4.88 4.32 c0 2.22 -0.88 3.66 -3.05 4.14 z M148.81 7.4399999999999995 l0 5.76 l3.81 0 c1.92 0 3.26 -0.54 3.26 -2.88 s-1.34 -2.88 -3.26 -2.88 l-3.81 0 z M180.092 18.56 c0.18 0 0.3 0.12 0.3 0.3 l0 0.84 c0 0.18 -0.12 0.3 -0.3 0.3 l-8.4 0 c-0.18 0 -0.3 -0.12 -0.3 -0.3 l0 -13.4 c0 -0.18 0.12 -0.3 0.3 -0.3 l0.96 0 c0.18 0 0.3 0.12 0.3 0.3 l0 12.26 l7.14 0 z M194.18800000000002 7.4399999999999995 l-3.87 0 l0 11.12 l3.87 0 c0.18 0 0.3 0.12 0.3 0.3 l0 0.84 c0 0.18 -0.12 0.3 -0.3 0.3 l-9.3 0 c-0.18 0 -0.3 -0.12 -0.3 -0.3 l0 -0.84 c0 -0.18 0.12 -0.3 0.3 -0.3 l3.87 0 l0 -11.12 l-3.87 0 c-0.18 0 -0.3 -0.12 -0.3 -0.3 l0 -0.84 c0 -0.18 0.12 -0.3 0.3 -0.3 l9.3 0 c0.18 0 0.3 0.12 0.3 0.3 l0 0.84 c0 0.18 -0.12 0.3 -0.3 0.3 z M212.164 12.780000000000001 c0.18 0 0.3 0.12 0.3 0.3 l0 0.64 c0 3.72 -2.44 6.54 -6.42 6.54 c-4.04 0 -7.06 -3.22 -7.06 -7.23 c0 -3.99 3.06 -7.19 7.04 -7.19 c1.91 0 3.43 0.72 4.72 1.88 c0.14 0.12 0.16 0.28 0.02 0.42 l-0.62 0.64 c-0.14 0.14 -0.28 0.12 -0.42 0 c-1.03 -0.89 -2.19 -1.42 -3.7 -1.42 c-3.02 0 -5.46 2.44 -5.46 5.67 c0 3.25 2.4 5.71 5.48 5.71 c2.83 0 4.86 -1.84 4.94 -4.52 l-4.72 0 c-0.18 0 -0.3 -0.12 -0.3 -0.3 l0 -0.84 c0 -0.18 0.12 -0.3 0.3 -0.3 l5.9 0 z M227.51 6 c0.18 0 0.3 0.12 0.3 0.3 l0 13.4 c0 0.18 -0.12 0.3 -0.3 0.3 l-0.96 0 c-0.18 0 -0.3 -0.12 -0.3 -0.3 l0 -6.14 l-7.48 0 l0 6.14 c0 0.18 -0.12 0.3 -0.3 0.3 l-0.96 0 c-0.18 0 -0.3 -0.12 -0.3 -0.3 l0 -13.4 c0 -0.18 0.12 -0.3 0.3 -0.3 l0.96 0 c0.18 0 0.3 0.12 0.3 0.3 l0 5.82 l7.48 0 l0 -5.82 c0 -0.18 0.12 -0.3 0.3 -0.3 l0.96 0 z M242.706 6 c0.18 0 0.3 0.12 0.3 0.3 l0 0.84 c0 0.18 -0.12 0.3 -0.3 0.3 l-4.32 0 l0 12.26 c0 0.18 -0.12 0.3 -0.3 0.3 l-0.96 0 c-0.18 0 -0.3 -0.12 -0.3 -0.3 l0 -12.26 l-4.32 0 c-0.18 0 -0.3 -0.12 -0.3 -0.3 l0 -0.84 c0 -0.18 0.12 -0.3 0.3 -0.3 l10.2 0 z M273.678 6 c0.22 0 0.29 0.14 0.24 0.34 l-3.57 13.42 c-0.04 0.16 -0.2 0.24 -0.36 0.24 l-1.25 0 c-0.16 0 -0.31 -0.08 -0.36 -0.24 l-3.33 -11.06 l-3.33 11.06 c-0.05 0.16 -0.2 0.24 -0.36 0.24 l-1.25 0 c-0.16 0 -0.32 -0.08 -0.36 -0.24 l-3.53 -13.42 c-0.06 -0.21 0.02 -0.34 0.24 -0.34 l0.96 0 c0.16 0 0.3 0.06 0.34 0.24 l2.98 11.86 l3.52 -11.86 c0.03 -0.11 0.09 -0.17 0.16 -0.21 c0.04 -0.02 0.1 -0.03 0.16 -0.03 l0.94 0 c0.06 0 0.12 0.01 0.16 0.03 c0.07 0.04 0.13 0.1 0.16 0.21 l3.52 11.86 l3.02 -11.86 c0.05 -0.18 0.18 -0.24 0.34 -0.24 l0.96 0 z M287.684 7.4399999999999995 l-3.87 0 l0 11.12 l3.87 0 c0.18 0 0.3 0.12 0.3 0.3 l0 0.84 c0 0.18 -0.12 0.3 -0.3 0.3 l-9.3 0 c-0.18 0 -0.3 -0.12 -0.3 -0.3 l0 -0.84 c0 -0.18 0.12 -0.3 0.3 -0.3 l3.87 0 l0 -11.12 l-3.87 0 c-0.18 0 -0.3 -0.12 -0.3 -0.3 l0 -0.84 c0 -0.18 0.12 -0.3 0.3 -0.3 l9.3 0 c0.18 0 0.3 0.12 0.3 0.3 l0 0.84 c0 0.18 -0.12 0.3 -0.3 0.3 z M302.63 6 c0.18 0 0.3 0.12 0.3 0.3 l0 0.84 c0 0.18 -0.12 0.3 -0.3 0.3 l-4.32 0 l0 12.26 c0 0.18 -0.12 0.3 -0.3 0.3 l-0.96 0 c-0.18 0 -0.3 -0.12 -0.3 -0.3 l0 -12.26 l-4.32 0 c-0.18 0 -0.3 -0.12 -0.3 -0.3 l0 -0.84 c0 -0.18 0.12 -0.3 0.3 -0.3 l10.2 0 z M317.62600000000003 6 c0.18 0 0.3 0.12 0.3 0.3 l0 13.4 c0 0.18 -0.12 0.3 -0.3 0.3 l-0.96 0 c-0.18 0 -0.3 -0.12 -0.3 -0.3 l0 -6.14 l-7.48 0 l0 6.14 c0 0.18 -0.12 0.3 -0.3 0.3 l-0.96 0 c-0.18 0 -0.3 -0.12 -0.3 -0.3 l0 -13.4 c0 -0.18 0.12 -0.3 0.3 -0.3 l0.96 0 c0.18 0 0.3 0.12 0.3 0.3 l0 5.82 l7.48 0 l0 -5.82 c0 -0.18 0.12 -0.3 0.3 -0.3 l0.96 0 z M343.658 19.66 c0.08 0.2 -0.02 0.34 -0.24 0.34 l-0.96 0 c-0.16 0 -0.27 -0.06 -0.34 -0.24 l-1.07 -2.86 l-6.74 0 l-1.07 2.86 c-0.07 0.18 -0.18 0.24 -0.34 0.24 l-0.96 0 c-0.22 0 -0.32 -0.14 -0.24 -0.34 l5.12 -13.42 c0.06 -0.16 0.2 -0.24 0.36 -0.24 l1 0 c0.16 0 0.3 0.08 0.36 0.24 z M334.82800000000003 15.5 l5.7 0 l-2.85 -7.6 z M354.98400000000004 14.46 l2.74 5.19 c0.11 0.21 0.01 0.35 -0.22 0.35 l-1.03 0 c-0.16 0 -0.27 -0.07 -0.35 -0.22 l-2.68 -5.14 l-0.29 0 l-3.71 0 l0 5.06 c0 0.18 -0.12 0.3 -0.3 0.3 l-0.96 0 c-0.18 0 -0.3 -0.12 -0.3 -0.3 l0 -13.4 c0 -0.18 0.12 -0.3 0.3 -0.3 l4.97 0 c3.52 0 4.88 1.56 4.88 4.32 c0 2.22 -0.88 3.66 -3.05 4.14 z M349.444 7.4399999999999995 l0 5.76 l3.81 0 c1.92 0 3.26 -0.54 3.26 -2.88 s-1.34 -2.88 -3.26 -2.88 l-3.81 0 z M372.23 6 c0.18 0 0.3 0.12 0.3 0.3 l0 0.84 c0 0.18 -0.12 0.3 -0.3 0.3 l-4.32 0 l0 12.26 c0 0.18 -0.12 0.3 -0.3 0.3 l-0.96 0 c-0.18 0 -0.3 -0.12 -0.3 -0.3 l0 -12.26 l-4.32 0 c-0.18 0 -0.3 -0.12 -0.3 -0.3 l0 -0.84 c0 -0.18 0.12 -0.3 0.3 -0.3 l10.2 0 z M400.232 6 c0.18 0 0.3 0.12 0.3 0.3 l0 13.4 c0 0.18 -0.12 0.3 -0.3 0.3 l-0.96 0 c-0.18 0 -0.3 -0.12 -0.3 -0.3 l0 -10.88 l-4.66 10.96 c-0.06 0.16 -0.18 0.22 -0.34 0.22 l-0.98 0 c-0.16 0 -0.28 -0.06 -0.34 -0.22 l-4.62 -10.86 l0 10.78 c0 0.18 -0.12 0.3 -0.3 0.3 l-0.96 0 c-0.18 0 -0.3 -0.12 -0.3 -0.3 l0 -13.4 c0 -0.18 0.12 -0.3 0.3 -0.3 l1.28 0 c0.16 0 0.3 0.06 0.36 0.2 l5.08 12.06 l5.06 -12.06 c0.06 -0.14 0.2 -0.2 0.36 -0.2 l1.32 0 z M414.47800000000007 18.56 c0.18 0 0.3 0.12 0.3 0.3 l0 0.84 c0 0.18 -0.12 0.3 -0.3 0.3 l-8.5 0 c-0.18 0 -0.3 -0.12 -0.3 -0.3 l0 -13.4 c0 -0.18 0.12 -0.3 0.3 -0.3 l8.48 0 c0.18 0 0.3 0.12 0.3 0.3 l0 0.84 c0 0.18 -0.12 0.3 -0.3 0.3 l-7.22 0 l0 4.48 l6.68 0 c0.18 0 0.3 0.12 0.3 0.3 l0 0.84 c0 0.18 -0.12 0.3 -0.3 0.3 l-6.68 0 l0 5.2 l7.24 0 z M423.01400000000007 6 c4.86 0 7.32 3.04 7.32 7 s-2.46 7 -7.32 7 l-3.14 0 c-0.18 0 -0.3 -0.12 -0.3 -0.3 l0 -13.4 c0 -0.18 0.12 -0.3 0.3 -0.3 l3.14 0 z M423.01400000000007 18.56 c3.84 0 5.74 -2.12 5.74 -5.56 s-1.9 -5.56 -5.74 -5.56 l-1.88 0 l0 11.12 l1.88 0 z M444.0800000000001 7.4399999999999995 l-3.87 0 l0 11.12 l3.87 0 c0.18 0 0.3 0.12 0.3 0.3 l0 0.84 c0 0.18 -0.12 0.3 -0.3 0.3 l-9.3 0 c-0.18 0 -0.3 -0.12 -0.3 -0.3 l0 -0.84 c0 -0.18 0.12 -0.3 0.3 -0.3 l3.87 0 l0 -11.12 l-3.87 0 c-0.18 0 -0.3 -0.12 -0.3 -0.3 l0 -0.84 c0 -0.18 0.12 -0.3 0.3 -0.3 l9.3 0 c0.18 0 0.3 0.12 0.3 0.3 l0 0.84 c0 0.18 -0.12 0.3 -0.3 0.3 z M460.03600000000006 17.32 l0.62 0.64 c0.14 0.14 0.12 0.29 -0.02 0.42 c-1.29 1.21 -2.81 1.88 -4.72 1.88 c-3.98 0 -7.04 -3.2 -7.04 -7.2 c0 -4.02 3.06 -7.22 7.04 -7.22 c1.91 0 3.43 0.72 4.72 1.88 c0.14 0.12 0.16 0.28 0.02 0.42 l-0.62 0.64 c-0.14 0.14 -0.28 0.12 -0.42 0 c-1.03 -0.89 -2.19 -1.42 -3.7 -1.42 c-3.02 0 -5.46 2.44 -5.46 5.7 c0 3.24 2.44 5.68 5.46 5.68 c1.51 0 2.67 -0.53 3.7 -1.42 c0.14 -0.12 0.28 -0.14 0.42 0 z M476.3920000000001 19.66 c0.08 0.2 -0.02 0.34 -0.24 0.34 l-0.96 0 c-0.16 0 -0.27 -0.06 -0.34 -0.24 l-1.07 -2.86 l-6.74 0 l-1.07 2.86 c-0.07 0.18 -0.18 0.24 -0.34 0.24 l-0.96 0 c-0.22 0 -0.32 -0.14 -0.24 -0.34 l5.12 -13.42 c0.06 -0.16 0.2 -0.24 0.36 -0.24 l1 0 c0.16 0 0.3 0.08 0.36 0.24 z M467.5620000000001 15.5 l5.7 0 l-2.85 -7.6 z M489.3180000000001 18.56 c0.18 0 0.3 0.12 0.3 0.3 l0 0.84 c0 0.18 -0.12 0.3 -0.3 0.3 l-8.4 0 c-0.18 0 -0.3 -0.12 -0.3 -0.3 l0 -13.4 c0 -0.18 0.12 -0.3 0.3 -0.3 l0.96 0 c0.18 0 0.3 0.12 0.3 0.3 l0 12.26 l7.14 0 z"></path></g>
			</g>
		</svg>
	