<svg width="3240" height="2613" viewBox="0 0 3240 2613" fill="none" xmlns="http://www.w3.org/2000/svg">
<path d="M1159.3 583.965C1118.09 607.514 1112.2 575.135 1154.88 551.587C1253.49 497.131 1405.08 419.128 1556.67 367.616C1599.35 224.855 1625.85 151.267 1631.73 138.021C1640.56 114.473 1671.47 111.53 1659.7 142.437C1653.81 157.154 1625.85 241.045 1592 355.842C1668.53 332.294 1743.59 317.576 1809.82 317.576C2020.28 317.576 2136.55 361.729 2136.55 485.357C2136.55 629.59 1967.3 753.218 1800.99 835.637C1728.87 872.431 1550.79 960.736 1413.91 1028.44L1384.48 1143.23L1827.48 1124.1C1870.16 1122.63 1880.46 1159.42 1845.14 1160.9C1821.59 1162.37 1569.92 1172.67 1375.65 1178.56C1332.97 1349.28 1299.12 1489.1 1291.76 1527.36C1278.51 1589.18 1278.51 1595.07 1287.34 1590.65C1296.17 1586.24 1302.06 1593.59 1274.1 1624.5C1247.6 1653.94 1232.89 1637.75 1246.13 1584.76L1347.68 1180.03C1252.02 1182.97 1168.13 1185.92 1156.35 1184.44C1118.09 1182.97 1090.13 1149.12 1144.58 1125.57C1172.54 1113.8 1269.68 1065.23 1391.84 1003.42L1435.99 819.447C1477.2 650.195 1513.99 514.793 1543.43 410.297C1405.08 458.866 1259.38 528.038 1159.3 583.965ZM1463.95 820.919L1424.22 985.756L1767.14 810.617C1998.2 694.348 2111.53 578.078 2111.53 477.999C2111.53 397.052 1992.32 351.427 1809.82 351.427C1748 351.427 1665.58 370.56 1578.75 398.523C1541.96 523.623 1499.28 676.686 1463.95 820.919ZM1356.51 1144.71L1381.53 1043.16C1319.72 1074.06 1268.21 1097.61 1246.13 1106.44C1171.07 1137.35 1162.24 1149.12 1218.17 1149.12C1232.89 1149.12 1290.28 1147.65 1356.51 1144.71Z" fill="url(#paint0_linear_108_2)"/>
<path d="M259.981 2047.95L314.077 2150.42C316.249 2154.57 314.275 2157.33 309.734 2157.33H289.398C286.239 2157.33 284.068 2155.95 282.488 2152.99L229.577 2051.51H223.851H150.604V2151.41C150.604 2154.96 148.235 2157.33 144.681 2157.33H125.728C122.174 2157.33 119.805 2154.96 119.805 2151.41V1886.85C119.805 1883.3 122.174 1880.93 125.728 1880.93H223.851C293.347 1880.93 320.198 1911.73 320.198 1966.22C320.198 2010.05 302.824 2038.48 259.981 2047.95ZM150.604 1909.36V2023.08H225.825C263.732 2023.08 290.188 2012.42 290.188 1966.22C290.188 1920.02 263.732 1909.36 225.825 1909.36H150.604ZM642.04 2128.9C645.594 2128.9 647.963 2131.27 647.963 2134.82V2151.41C647.963 2154.96 645.594 2157.33 642.04 2157.33H474.224C470.67 2157.33 468.301 2154.96 468.301 2151.41V1886.85C468.301 1883.3 470.67 1880.93 474.224 1880.93H641.645C645.199 1880.93 647.568 1883.3 647.568 1886.85V1903.43C647.568 1906.99 645.199 1909.36 641.645 1909.36H499.1V1997.81H630.984C634.538 1997.81 636.907 2000.18 636.907 2003.73V2020.31C636.907 2023.87 634.538 2026.24 630.984 2026.24H499.1V2128.9H642.04ZM990.536 1885.67C991.918 1882.11 994.09 1880.93 997.249 1880.93H1016.2C1020.55 1880.93 1022.52 1883.69 1020.94 1887.64L919.856 2152.59C918.671 2155.75 915.907 2157.33 912.748 2157.33H893.005C889.846 2157.33 887.082 2155.75 885.897 2152.59L784.813 1887.64C783.233 1883.69 785.208 1880.93 789.551 1880.93H808.504C811.663 1880.93 813.835 1882.11 815.217 1885.67L902.877 2119.82L990.536 1885.67ZM1338.44 2128.9C1341.99 2128.9 1344.36 2131.27 1344.36 2134.82V2151.41C1344.36 2154.96 1341.99 2157.33 1338.44 2157.33H1170.62C1167.07 2157.33 1164.7 2154.96 1164.7 2151.41V1886.85C1164.7 1883.3 1167.07 1880.93 1170.62 1880.93H1338.04C1341.6 1880.93 1343.97 1883.3 1343.97 1886.85V1903.43C1343.97 1906.99 1341.6 1909.36 1338.04 1909.36H1195.5V1997.81H1327.38C1330.94 1997.81 1333.31 2000.18 1333.31 2003.73V2020.31C1333.31 2023.87 1330.94 2026.24 1327.38 2026.24H1195.5V2128.9H1338.44ZM1717.34 2150.62C1718.92 2154.57 1716.95 2157.33 1712.6 2157.33H1693.65C1690.49 2157.33 1688.32 2156.15 1686.94 2152.59L1665.81 2096.13H1532.74L1511.62 2152.59C1510.23 2156.15 1508.06 2157.33 1504.9 2157.33H1485.95C1481.61 2157.33 1479.63 2154.57 1481.21 2150.62L1582.3 1885.67C1583.48 1882.51 1586.25 1880.93 1589.4 1880.93H1609.15C1612.31 1880.93 1615.07 1882.51 1616.26 1885.67L1717.34 2150.62ZM1543.01 2068.49H1655.54L1599.28 1918.44L1543.01 2068.49ZM2032.87 2128.9C2036.42 2128.9 2038.79 2131.27 2038.79 2134.82V2151.41C2038.79 2154.96 2036.42 2157.33 2032.87 2157.33H1867.02C1863.47 2157.33 1861.1 2154.96 1861.1 2151.41V1886.85C1861.1 1883.3 1863.47 1880.93 1867.02 1880.93H1885.98C1889.53 1880.93 1891.9 1883.3 1891.9 1886.85V2128.9H2032.87ZM2395.18 1880.93C2398.73 1880.93 2401.1 1883.3 2401.1 1886.85V2045.59C2401.1 2123.77 2360.24 2163.06 2290.54 2163.06C2220.85 2163.06 2179.98 2123.77 2179.98 2045.59V1886.85C2179.98 1883.3 2182.35 1880.93 2185.9 1880.93H2204.86C2208.41 1880.93 2210.78 1883.3 2210.78 1886.85V2045.59C2210.78 2106.39 2242.57 2134.23 2290.54 2134.23C2338.52 2134.23 2370.3 2106.39 2370.3 2045.59V1886.85C2370.3 1883.3 2372.67 1880.93 2376.23 1880.93H2395.18ZM2749.4 2150.22C2751.77 2154.17 2750.19 2157.33 2745.45 2157.33H2725.32C2722.16 2157.33 2719.79 2156.15 2718.21 2153.38L2645.95 2041.83L2573.69 2153.38C2572.11 2156.15 2569.74 2157.33 2566.58 2157.33H2546.44C2541.7 2157.33 2540.13 2154.17 2542.49 2150.22L2629.36 2016.17L2546.44 1888.04C2544.07 1884.09 2545.65 1880.93 2550.39 1880.93H2570.53C2573.69 1880.93 2576.06 1882.11 2577.64 1884.88L2645.95 1990.5L2714.26 1884.88C2715.84 1882.11 2718.21 1880.93 2721.37 1880.93H2741.51C2746.24 1880.93 2747.82 1884.09 2745.45 1888.04L2662.53 2016.17L2749.4 2150.22ZM3114.68 1880.93C3119.42 1880.93 3121.2 1884.09 3118.63 1888.04L3013.79 2050.32V2151.41C3013.79 2154.96 3011.42 2157.33 3007.87 2157.33H2988.92C2985.36 2157.33 2982.99 2154.96 2982.99 2151.41V2050.32L2878.16 1888.04C2875.59 1884.09 2877.37 1880.93 2882.11 1880.93H2904.42C2907.57 1880.93 2909.75 1882.11 2911.52 1884.88L2998.39 2019.52L3085.26 1884.88C3087.04 1882.11 3089.21 1880.93 3092.37 1880.93H3114.68Z" fill="url(#paint1_linear_108_2)"/>
<defs>
<linearGradient id="paint0_linear_108_2" x1="1114.18" y1="119.805" x2="2136.55" y2="119.805" gradientUnits="userSpaceOnUse">
<stop stop-color="#FE8DC6"/>
<stop offset="1" stop-color="#FED1C7"/>
</linearGradient>
<linearGradient id="paint1_linear_108_2" x1="119.805" y1="1880.93" x2="3119.8" y2="1880.93" gradientUnits="userSpaceOnUse">
<stop stop-color="#FE8DC6"/>
<stop offset="1" stop-color="#FED1C7"/>
</linearGradient>
</defs>
</svg>
