<svg width="4264" height="564" viewBox="0 0 4264 564" fill="none" xmlns="http://www.w3.org/2000/svg">
<path d="M772.176 167.027L826.272 269.494C828.444 273.64 826.47 276.404 821.929 276.404H801.594C798.435 276.404 796.263 275.022 794.683 272.06L741.772 170.581H736.046H662.799V270.481C662.799 274.035 660.43 276.404 656.876 276.404H637.923C634.369 276.404 632 274.035 632 270.481V5.92294C632 2.36918 634.369 0 637.923 0H736.046C805.542 0 832.393 30.7993 832.393 85.2903C832.393 129.12 815.019 157.55 772.176 167.027ZM662.799 28.4301V142.151H738.021C775.927 142.151 802.383 131.489 802.383 85.2903C802.383 39.0914 775.927 28.4301 738.021 28.4301H662.799ZM1154.24 247.974C1157.79 247.974 1160.16 250.343 1160.16 253.897V270.481C1160.16 274.035 1157.79 276.404 1154.24 276.404H986.419C982.865 276.404 980.496 274.035 980.496 270.481V5.92294C980.496 2.36918 982.865 0 986.419 0H1153.84C1157.39 0 1159.76 2.36918 1159.76 5.92294V22.5072C1159.76 26.0609 1157.39 28.4301 1153.84 28.4301H1011.3V116.879H1143.18C1146.73 116.879 1149.1 119.249 1149.1 122.802V139.387C1149.1 142.94 1146.73 145.309 1143.18 145.309H1011.3V247.974H1154.24ZM1502.73 4.73835C1504.11 1.18458 1506.29 0 1509.44 0H1528.4C1532.74 0 1534.72 2.76404 1533.14 6.71267L1432.05 271.666C1430.87 274.824 1428.1 276.404 1424.94 276.404H1405.2C1402.04 276.404 1399.28 274.824 1398.09 271.666L1297.01 6.71267C1295.43 2.76404 1297.4 0 1301.75 0H1320.7C1323.86 0 1326.03 1.18458 1327.41 4.73835L1415.07 238.892L1502.73 4.73835ZM1850.64 247.974C1854.19 247.974 1856.56 250.343 1856.56 253.897V270.481C1856.56 274.035 1854.19 276.404 1850.64 276.404H1682.82C1679.26 276.404 1676.9 274.035 1676.9 270.481V5.92294C1676.9 2.36918 1679.26 0 1682.82 0H1850.24C1853.79 0 1856.16 2.36918 1856.16 5.92294V22.5072C1856.16 26.0609 1853.79 28.4301 1850.24 28.4301H1707.69V116.879H1839.58C1843.13 116.879 1845.5 119.249 1845.5 122.802V139.387C1845.5 142.94 1843.13 145.309 1839.58 145.309H1707.69V247.974H1850.64ZM2229.54 269.691C2231.11 273.64 2229.14 276.404 2224.8 276.404H2205.84C2202.68 276.404 2200.51 275.219 2199.13 271.666L2178.01 215.2H2044.94L2023.81 271.666C2022.43 275.219 2020.26 276.404 2017.1 276.404H1998.15C1993.8 276.404 1991.83 273.64 1993.41 269.691L2094.49 4.73835C2095.68 1.57945 2098.44 0 2101.6 0H2121.34C2124.5 0 2127.27 1.57945 2128.45 4.73835L2229.54 269.691ZM2055.2 187.56H2167.74L2111.47 37.512L2055.2 187.56ZM2545.06 247.974C2548.61 247.974 2550.98 250.343 2550.98 253.897V270.481C2550.98 274.035 2548.61 276.404 2545.06 276.404H2379.22C2375.66 276.404 2373.3 274.035 2373.3 270.481V5.92294C2373.3 2.36918 2375.66 0 2379.22 0H2398.17C2401.73 0 2404.09 2.36918 2404.09 5.92294V247.974H2545.06ZM2907.38 0C2910.93 0 2913.3 2.36918 2913.3 5.92294V164.658C2913.3 242.841 2872.43 282.129 2802.74 282.129C2733.04 282.129 2692.18 242.841 2692.18 164.658V5.92294C2692.18 2.36918 2694.55 0 2698.1 0H2717.05C2720.61 0 2722.98 2.36918 2722.98 5.92294V164.658C2722.98 225.467 2754.76 253.304 2802.74 253.304C2850.71 253.304 2882.5 225.467 2882.5 164.658V5.92294C2882.5 2.36918 2884.87 0 2888.42 0H2907.38ZM3261.6 269.296C3263.97 273.245 3262.39 276.404 3257.65 276.404H3237.51C3234.35 276.404 3231.98 275.219 3230.4 272.455L3158.14 160.907L3085.88 272.455C3084.3 275.219 3081.94 276.404 3078.78 276.404H3058.64C3053.9 276.404 3052.32 273.245 3054.69 269.296L3141.56 135.24L3058.64 7.10753C3056.27 3.1589 3057.85 0 3062.59 0H3082.73C3085.88 0 3088.25 1.18458 3089.83 3.94862L3158.14 109.574L3226.46 3.94862C3228.03 1.18458 3230.4 0 3233.56 0H3253.7C3258.44 0 3260.02 3.1589 3257.65 7.10753L3174.73 135.24L3261.6 269.296ZM3626.88 0C3631.61 0 3633.39 3.1589 3630.82 7.10753L3525.99 169.396V270.481C3525.99 274.035 3523.62 276.404 3520.07 276.404H3501.11C3497.56 276.404 3495.19 274.035 3495.19 270.481V169.396L3390.35 7.10753C3387.79 3.1589 3389.56 0 3394.3 0H3416.61C3419.77 0 3421.94 1.18458 3423.72 3.94862L3510.59 138.597L3597.46 3.94862C3599.23 1.18458 3601.41 0 3604.57 0H3626.88Z" fill="url(#paint0_linear_108_3)"/>
<path d="M62.036 512.317L85.9766 557.664C86.9377 559.499 86.064 560.722 84.0544 560.722H75.0548C73.6568 560.722 72.6957 560.111 71.9967 558.8L48.5803 513.89H46.0464H13.6304V558.101C13.6304 559.674 12.5819 560.722 11.0092 560.722H2.62124C1.04849 560.722 0 559.674 0 558.101V441.019C0 439.446 1.04849 438.398 2.62124 438.398H46.0464C76.8023 438.398 88.6852 452.028 88.6852 476.144C88.6852 495.541 80.9963 508.123 62.036 512.317ZM13.6304 450.98V501.308H46.9202C63.6961 501.308 75.4043 496.589 75.4043 476.144C75.4043 455.698 63.6961 450.98 46.9202 450.98H13.6304ZM204.422 548.141C205.994 548.141 207.043 549.189 207.043 550.762V558.101C207.043 559.674 205.994 560.722 204.422 560.722H130.153C128.58 560.722 127.532 559.674 127.532 558.101V441.019C127.532 439.446 128.58 438.398 130.153 438.398H204.247C205.82 438.398 206.868 439.446 206.868 441.019V448.359C206.868 449.931 205.82 450.98 204.247 450.98H141.162V490.124H199.529C201.101 490.124 202.15 491.172 202.15 492.745V500.084C202.15 501.657 201.101 502.706 199.529 502.706H141.162V548.141H204.422ZM331.954 440.495C332.565 438.922 333.526 438.398 334.924 438.398H343.312C345.235 438.398 346.108 439.621 345.409 441.369L300.674 558.625C300.149 560.023 298.926 560.722 297.528 560.722H288.791C287.393 560.722 286.169 560.023 285.645 558.625L240.909 441.369C240.21 439.621 241.084 438.398 243.006 438.398H251.394C252.792 438.398 253.753 438.922 254.365 440.495L293.159 544.121L331.954 440.495ZM459.224 548.141C460.796 548.141 461.845 549.189 461.845 550.762V558.101C461.845 559.674 460.796 560.722 459.224 560.722H384.955C383.382 560.722 382.334 559.674 382.334 558.101V441.019C382.334 439.446 383.382 438.398 384.955 438.398H459.049C460.622 438.398 461.67 439.446 461.67 441.019V448.359C461.67 449.931 460.622 450.98 459.049 450.98H395.964V490.124H454.331C455.903 490.124 456.952 491.172 456.952 492.745V500.084C456.952 501.657 455.903 502.706 454.331 502.706H395.964V548.141H459.224ZM600.211 557.752C600.91 559.499 600.036 560.722 598.114 560.722H589.726C588.328 560.722 587.367 560.198 586.756 558.625L577.406 533.636H518.516L509.167 558.625C508.555 560.198 507.594 560.722 506.196 560.722H497.808C495.886 560.722 495.012 559.499 495.711 557.752L540.447 440.495C540.971 439.097 542.194 438.398 543.592 438.398H552.33C553.728 438.398 554.951 439.097 555.475 440.495L600.211 557.752ZM523.059 521.404H572.863L547.961 454.999L523.059 521.404ZM713.152 548.141C714.724 548.141 715.773 549.189 715.773 550.762V558.101C715.773 559.674 714.724 560.722 713.152 560.722H639.757C638.184 560.722 637.136 559.674 637.136 558.101V441.019C637.136 439.446 638.184 438.398 639.757 438.398H648.145C649.718 438.398 650.766 439.446 650.766 441.019V548.141H713.152ZM934.052 438.398C936.149 438.398 936.936 439.796 935.8 441.543L889.404 513.365V558.101C889.404 559.674 888.355 560.722 886.783 560.722H878.395C876.822 560.722 875.773 559.674 875.773 558.101V513.365L829.377 441.543C828.242 439.796 829.028 438.398 831.125 438.398H840.998C842.396 438.398 843.357 438.922 844.144 440.145L882.589 499.735L921.033 440.145C921.82 438.922 922.781 438.398 924.179 438.398H934.052ZM1031.18 562.994C996.577 562.994 968.618 535.034 968.618 500.084C968.618 464.96 996.577 437 1031.18 437C1065.6 437 1093.56 464.96 1093.56 500.084C1093.56 535.034 1065.6 562.994 1031.18 562.994ZM1031.18 550.238C1058.61 550.238 1080.28 528.044 1080.28 500.084C1080.28 471.95 1058.61 449.757 1031.18 449.757C1003.57 449.757 981.899 471.95 981.899 500.084C981.899 528.044 1003.57 550.238 1031.18 550.238ZM1227.21 438.398C1228.78 438.398 1229.83 439.446 1229.83 441.019V511.268C1229.83 545.869 1211.75 563.256 1180.9 563.256C1150.06 563.256 1131.97 545.869 1131.97 511.268V441.019C1131.97 439.446 1133.02 438.398 1134.59 438.398H1142.98C1144.56 438.398 1145.6 439.446 1145.6 441.019V511.268C1145.6 538.18 1159.67 550.5 1180.9 550.5C1202.14 550.5 1216.2 538.18 1216.2 511.268V441.019C1216.2 439.446 1217.25 438.398 1218.82 438.398H1227.21ZM1333.77 512.317L1357.71 557.664C1358.68 559.499 1357.8 560.722 1355.79 560.722H1346.79C1345.39 560.722 1344.43 560.111 1343.73 558.8L1320.32 513.89H1317.78H1285.37V558.101C1285.37 559.674 1284.32 560.722 1282.75 560.722H1274.36C1272.79 560.722 1271.74 559.674 1271.74 558.101V441.019C1271.74 439.446 1272.79 438.398 1274.36 438.398H1317.78C1348.54 438.398 1360.42 452.028 1360.42 476.144C1360.42 495.541 1352.73 508.123 1333.77 512.317ZM1285.37 450.98V501.308H1318.66C1335.43 501.308 1347.14 496.589 1347.14 476.144C1347.14 455.698 1335.43 450.98 1318.66 450.98H1285.37ZM1558.69 548.141C1560.27 548.141 1561.31 549.189 1561.31 550.762V558.101C1561.31 559.674 1560.27 560.722 1558.69 560.722H1485.3C1483.73 560.722 1482.68 559.674 1482.68 558.101V441.019C1482.68 439.446 1483.73 438.398 1485.3 438.398H1493.69C1495.26 438.398 1496.31 439.446 1496.31 441.019V548.141H1558.69ZM1681.86 450.98H1648.04V548.141H1681.86C1683.43 548.141 1684.48 549.189 1684.48 550.762V558.101C1684.48 559.674 1683.43 560.722 1681.86 560.722H1600.6C1599.03 560.722 1597.98 559.674 1597.98 558.101V550.762C1597.98 549.189 1599.03 548.141 1600.6 548.141H1634.41V450.98H1600.6C1599.03 450.98 1597.98 449.931 1597.98 448.359V441.019C1597.98 439.446 1599.03 438.398 1600.6 438.398H1681.86C1683.43 438.398 1684.48 439.446 1684.48 441.019V448.359C1684.48 449.931 1683.43 450.98 1681.86 450.98ZM1838.92 497.638C1840.49 497.638 1841.54 498.686 1841.54 500.259V505.851C1841.54 538.355 1820.22 562.994 1785.45 562.994C1750.15 562.994 1723.76 534.86 1723.76 499.822C1723.76 464.96 1750.5 437 1785.27 437C1801.96 437 1815.24 443.291 1826.51 453.426C1827.74 454.475 1827.91 455.873 1826.69 457.096L1821.27 462.688C1820.05 463.911 1818.83 463.737 1817.6 462.688C1808.6 454.912 1798.47 450.281 1785.27 450.281C1758.89 450.281 1737.57 471.6 1737.57 499.822C1737.57 528.219 1758.54 549.713 1785.45 549.713C1810.18 549.713 1827.91 533.636 1828.61 510.22H1787.37C1785.8 510.22 1784.75 509.171 1784.75 507.599V500.259C1784.75 498.686 1785.8 497.638 1787.37 497.638H1838.92ZM1973.01 438.398C1974.58 438.398 1975.63 439.446 1975.63 441.019V558.101C1975.63 559.674 1974.58 560.722 1973.01 560.722H1964.62C1963.05 560.722 1962 559.674 1962 558.101V504.453H1896.64V558.101C1896.64 559.674 1895.59 560.722 1894.02 560.722H1885.63C1884.06 560.722 1883.01 559.674 1883.01 558.101V441.019C1883.01 439.446 1884.06 438.398 1885.63 438.398H1894.02C1895.59 438.398 1896.64 439.446 1896.64 441.019V491.871H1962V441.019C1962 439.446 1963.05 438.398 1964.62 438.398H1973.01ZM2105.78 438.398C2107.35 438.398 2108.4 439.446 2108.4 441.019V448.359C2108.4 449.931 2107.35 450.98 2105.78 450.98H2068.03V558.101C2068.03 559.674 2066.99 560.722 2065.41 560.722H2057.03C2055.45 560.722 2054.4 559.674 2054.4 558.101V450.98H2016.66C2015.09 450.98 2014.04 449.931 2014.04 448.359V441.019C2014.04 439.446 2015.09 438.398 2016.66 438.398H2105.78ZM2376.4 438.398C2378.32 438.398 2378.93 439.621 2378.49 441.369L2347.3 558.625C2346.95 560.023 2345.55 560.722 2344.16 560.722H2333.23C2331.84 560.722 2330.53 560.023 2330.09 558.625L2300.99 461.989L2271.9 558.625C2271.46 560.023 2270.15 560.722 2268.75 560.722H2257.83C2256.43 560.722 2255.03 560.023 2254.68 558.625L2223.84 441.369C2223.32 439.534 2224.02 438.398 2225.94 438.398H2234.33C2235.72 438.398 2236.95 438.922 2237.3 440.495L2263.33 544.121L2294.09 440.495C2294.35 439.534 2294.88 439.01 2295.49 438.66C2295.84 438.485 2296.36 438.398 2296.89 438.398H2305.1C2305.62 438.398 2306.15 438.485 2306.5 438.66C2307.11 439.01 2307.63 439.534 2307.9 440.495L2338.65 544.121L2365.04 440.495C2365.48 438.922 2366.61 438.398 2368.01 438.398H2376.4ZM2498.77 450.98H2464.96V548.141H2498.77C2500.35 548.141 2501.4 549.189 2501.4 550.762V558.101C2501.4 559.674 2500.35 560.722 2498.77 560.722H2417.52C2415.94 560.722 2414.89 559.674 2414.89 558.101V550.762C2414.89 549.189 2415.94 548.141 2417.52 548.141H2451.33V450.98H2417.52C2415.94 450.98 2414.89 449.931 2414.89 448.359V441.019C2414.89 439.446 2415.94 438.398 2417.52 438.398H2498.77C2500.35 438.398 2501.4 439.446 2501.4 441.019V448.359C2501.4 449.931 2500.35 450.98 2498.77 450.98ZM2629.36 438.398C2630.94 438.398 2631.99 439.446 2631.99 441.019V448.359C2631.99 449.931 2630.94 450.98 2629.36 450.98H2591.62V558.101C2591.62 559.674 2590.57 560.722 2589 560.722H2580.61C2579.04 560.722 2577.99 559.674 2577.99 558.101V450.98H2540.24C2538.67 450.98 2537.62 449.931 2537.62 448.359V441.019C2537.62 439.446 2538.67 438.398 2540.24 438.398H2629.36ZM2760.39 438.398C2761.96 438.398 2763.01 439.446 2763.01 441.019V558.101C2763.01 559.674 2761.96 560.722 2760.39 560.722H2752C2750.43 560.722 2749.38 559.674 2749.38 558.101V504.453H2684.03V558.101C2684.03 559.674 2682.98 560.722 2681.4 560.722H2673.02C2671.44 560.722 2670.4 559.674 2670.4 558.101V441.019C2670.4 439.446 2671.44 438.398 2673.02 438.398H2681.4C2682.98 438.398 2684.03 439.446 2684.03 441.019V491.871H2749.38V441.019C2749.38 439.446 2750.43 438.398 2752 438.398H2760.39ZM2987.84 557.752C2988.54 559.499 2987.67 560.722 2985.75 560.722H2977.36C2975.96 560.722 2975 560.198 2974.39 558.625L2965.04 533.636H2906.15L2896.8 558.625C2896.19 560.198 2895.23 560.722 2893.83 560.722H2885.44C2883.52 560.722 2882.65 559.499 2883.34 557.752L2928.08 440.495C2928.6 439.097 2929.83 438.398 2931.23 438.398H2939.96C2941.36 438.398 2942.58 439.097 2943.11 440.495L2987.84 557.752ZM2910.69 521.404H2960.5L2935.59 454.999L2910.69 521.404ZM3086.81 512.317L3110.75 557.664C3111.71 559.499 3110.83 560.722 3108.82 560.722H3099.82C3098.43 560.722 3097.47 560.111 3096.77 558.8L3073.35 513.89H3070.82H3038.4V558.101C3038.4 559.674 3037.35 560.722 3035.78 560.722H3027.39C3025.82 560.722 3024.77 559.674 3024.77 558.101V441.019C3024.77 439.446 3025.82 438.398 3027.39 438.398H3070.82C3101.57 438.398 3113.45 452.028 3113.45 476.144C3113.45 495.541 3105.77 508.123 3086.81 512.317ZM3038.4 450.98V501.308H3071.69C3088.47 501.308 3100.17 496.589 3100.17 476.144C3100.17 455.698 3088.47 450.98 3071.69 450.98H3038.4ZM3237.49 438.398C3239.06 438.398 3240.11 439.446 3240.11 441.019V448.359C3240.11 449.931 3239.06 450.98 3237.49 450.98H3199.75V558.101C3199.75 559.674 3198.7 560.722 3197.12 560.722H3188.74C3187.16 560.722 3186.12 559.674 3186.12 558.101V450.98H3148.37C3146.8 450.98 3145.75 449.931 3145.75 448.359V441.019C3145.75 439.446 3146.8 438.398 3148.37 438.398H3237.49ZM3482.16 438.398C3483.73 438.398 3484.78 439.446 3484.78 441.019V558.101C3484.78 559.674 3483.73 560.722 3482.16 560.722H3473.77C3472.2 560.722 3471.15 559.674 3471.15 558.101V463.038L3430.43 558.8C3429.91 560.198 3428.86 560.722 3427.46 560.722H3418.9C3417.5 560.722 3416.45 560.198 3415.93 558.8L3375.56 463.911V558.101C3375.56 559.674 3374.51 560.722 3372.94 560.722H3364.55C3362.98 560.722 3361.93 559.674 3361.93 558.101V441.019C3361.93 439.446 3362.98 438.398 3364.55 438.398H3375.74C3377.13 438.398 3378.36 438.922 3378.88 440.145L3423.27 545.519L3467.48 440.145C3468 438.922 3469.23 438.398 3470.62 438.398H3482.16ZM3606.63 548.141C3608.2 548.141 3609.25 549.189 3609.25 550.762V558.101C3609.25 559.674 3608.2 560.722 3606.63 560.722H3532.36C3530.79 560.722 3529.74 559.674 3529.74 558.101V441.019C3529.74 439.446 3530.79 438.398 3532.36 438.398H3606.46C3608.03 438.398 3609.08 439.446 3609.08 441.019V448.359C3609.08 449.931 3608.03 450.98 3606.46 450.98H3543.37V490.124H3601.74C3603.31 490.124 3604.36 491.172 3604.36 492.745V500.084C3604.36 501.657 3603.31 502.706 3601.74 502.706H3543.37V548.141H3606.63ZM3681.22 438.398C3723.68 438.398 3745.17 464.96 3745.17 499.56C3745.17 534.161 3723.68 560.722 3681.22 560.722H3653.78C3652.21 560.722 3651.16 559.674 3651.16 558.101V441.019C3651.16 439.446 3652.21 438.398 3653.78 438.398H3681.22ZM3681.22 548.141C3714.77 548.141 3731.37 529.617 3731.37 499.56C3731.37 469.503 3714.77 450.98 3681.22 450.98H3664.79V548.141H3681.22ZM3865.28 450.98H3831.46V548.141H3865.28C3866.85 548.141 3867.9 549.189 3867.9 550.762V558.101C3867.9 559.674 3866.85 560.722 3865.28 560.722H3784.02C3782.45 560.722 3781.4 559.674 3781.4 558.101V550.762C3781.4 549.189 3782.45 548.141 3784.02 548.141H3817.83V450.98H3784.02C3782.45 450.98 3781.4 449.931 3781.4 448.359V441.019C3781.4 439.446 3782.45 438.398 3784.02 438.398H3865.28C3866.85 438.398 3867.9 439.446 3867.9 441.019V448.359C3867.9 449.931 3866.85 450.98 3865.28 450.98ZM4004.69 537.306L4010.11 542.898C4011.33 544.121 4011.16 545.432 4009.94 546.568C3998.66 557.14 3985.38 562.994 3968.69 562.994C3933.92 562.994 3907.18 535.034 3907.18 500.084C3907.18 464.96 3933.92 437 3968.69 437C3985.38 437 3998.66 443.291 4009.94 453.426C4011.16 454.475 4011.33 455.873 4010.11 457.096L4004.69 462.688C4003.47 463.911 4002.25 463.737 4001.02 462.688C3992.02 454.912 3981.89 450.281 3968.69 450.281C3942.31 450.281 3920.99 471.6 3920.99 500.084C3920.99 528.394 3942.31 549.713 3968.69 549.713C3981.89 549.713 3992.02 545.082 4001.02 537.306C4002.25 536.258 4003.47 536.083 4004.69 537.306ZM4147.6 557.752C4148.3 559.499 4147.43 560.722 4145.51 560.722H4137.12C4135.72 560.722 4134.76 560.198 4134.15 558.625L4124.8 533.636H4065.91L4056.56 558.625C4055.95 560.198 4054.99 560.722 4053.59 560.722H4045.2C4043.28 560.722 4042.4 559.499 4043.1 557.752L4087.84 440.495C4088.36 439.097 4089.59 438.398 4090.98 438.398H4099.72C4101.12 438.398 4102.34 439.097 4102.87 440.495L4147.6 557.752ZM4070.45 521.404H4120.25L4095.35 454.999L4070.45 521.404ZM4260.54 548.141C4262.12 548.141 4263.16 549.189 4263.16 550.762V558.101C4263.16 559.674 4262.12 560.722 4260.54 560.722H4187.15C4185.58 560.722 4184.53 559.674 4184.53 558.101V441.019C4184.53 439.446 4185.58 438.398 4187.15 438.398H4195.54C4197.11 438.398 4198.16 439.446 4198.16 441.019V548.141H4260.54Z" fill="url(#paint1_linear_108_3)"/>
<defs>
<linearGradient id="paint0_linear_108_3" x1="632" y1="0" x2="3632" y2="0" gradientUnits="userSpaceOnUse">
<stop stop-color="#FE8DC6"/>
<stop offset="1" stop-color="#FED1C7"/>
</linearGradient>
<linearGradient id="paint1_linear_108_3" x1="0" y1="437" x2="4263.17" y2="437" gradientUnits="userSpaceOnUse">
<stop stop-color="#FE8DC6"/>
<stop offset="1" stop-color="#FED1C7"/>
</linearGradient>
</defs>
</svg>
