<svg width="1023" height="1521" viewBox="0 0 1023 1521" fill="none" xmlns="http://www.w3.org/2000/svg">
<path d="M45.2981 464.965C4.08874 488.514 -1.79831 456.135 40.8828 432.587C139.491 378.131 291.082 300.128 442.674 248.616C485.355 105.855 511.847 32.2673 517.734 19.0215C526.564 -4.52672 557.471 -7.47024 545.697 23.4368C539.81 38.1544 511.847 122.045 477.996 236.842C554.528 213.294 629.588 198.576 695.817 198.576C906.279 198.576 1022.55 242.729 1022.55 366.357C1022.55 510.59 853.295 634.218 686.986 716.637C614.87 753.431 436.787 841.736 299.913 909.438L270.478 1024.23L713.478 1005.1C756.159 1003.63 766.461 1040.42 731.139 1041.9C707.591 1043.37 455.92 1053.67 261.647 1059.56C218.966 1230.28 185.115 1370.1 177.757 1408.36C164.511 1470.18 164.511 1476.07 173.341 1471.65C182.172 1467.24 188.059 1474.59 160.096 1505.5C133.604 1534.94 118.886 1518.75 132.132 1465.76L233.684 1061.03C138.019 1063.97 54.1286 1066.92 42.3545 1065.44C4.08874 1063.97 -23.8747 1030.12 30.5805 1006.57C58.5439 994.8 155.68 946.232 277.836 884.418L321.989 700.447C363.199 531.195 399.993 395.793 429.428 291.297C291.082 339.866 145.378 409.038 45.2981 464.965ZM349.953 701.919L310.215 866.756L653.136 691.617C884.202 575.348 997.528 459.078 997.528 358.999C997.528 278.052 878.315 232.427 695.817 232.427C634.003 232.427 551.584 251.56 464.75 279.523C427.956 404.623 385.275 557.686 349.953 701.919ZM242.514 1025.71L267.534 924.155C205.72 955.062 154.208 978.61 132.132 987.441C57.0722 1018.35 48.2416 1030.12 104.169 1030.12C118.886 1030.12 176.285 1028.65 242.514 1025.71Z" fill="url(#paint0_linear_108_3)"/>
<defs>
<linearGradient id="paint0_linear_108_3" x1="0.179688" y1="0.804688" x2="1022.55" y2="0.804688" gradientUnits="userSpaceOnUse">
<stop stop-color="#FE8DC6"/>
<stop offset="1" stop-color="#FED1C7"/>
</linearGradient>
</defs>
</svg>
