<svg width="2971" height="1354" viewBox="0 0 2971 1354" fill="none" xmlns="http://www.w3.org/2000/svg">
<path d="M1294.19 232.081C1276.96 243.855 1274.5 227.665 1292.35 215.891C1333.58 188.664 1396.97 149.662 1460.35 123.906C1478.2 52.5255 1489.28 15.7313 1491.74 9.10841C1495.43 -2.66571 1508.35 -4.13747 1503.43 11.3161C1500.97 18.6749 1489.28 60.6202 1475.12 118.019C1507.12 106.245 1538.51 98.886 1566.2 98.886C1654.2 98.886 1702.82 120.963 1702.82 182.777C1702.82 254.893 1632.05 316.707 1562.51 357.917C1532.35 376.314 1457.89 420.467 1400.66 454.317L1388.35 511.716L1573.59 502.149C1591.43 501.414 1595.74 519.811 1580.97 520.547C1571.12 521.282 1465.89 526.434 1384.66 529.377C1366.81 614.739 1352.66 684.648 1349.58 703.781C1344.04 734.688 1344.04 737.632 1347.73 735.424C1351.43 733.216 1353.89 736.896 1342.19 752.349C1331.12 767.067 1324.96 758.972 1330.5 732.481L1372.96 530.113C1332.96 531.585 1297.89 533.057 1292.96 532.321C1276.96 531.585 1265.27 514.659 1288.04 502.885C1299.73 496.998 1340.35 472.714 1391.43 441.807L1409.89 349.822C1427.12 265.195 1442.51 197.494 1454.81 145.247C1396.97 169.531 1336.04 204.117 1294.19 232.081ZM1421.58 350.558L1404.97 432.977L1548.35 345.407C1644.97 287.272 1692.36 229.137 1692.36 179.097C1692.36 138.624 1642.51 115.811 1566.2 115.811C1540.35 115.811 1505.89 125.378 1469.58 139.36C1454.2 201.91 1436.35 278.441 1421.58 350.558ZM1376.66 512.452L1387.12 461.676C1361.27 477.129 1339.73 488.904 1330.5 493.319C1299.12 508.772 1295.42 514.659 1318.81 514.659C1324.96 514.659 1348.96 513.924 1376.66 512.452Z" fill="url(#paint0_linear_117_11)"/>
<path d="M347.877 1035.95L393.116 1138.42C394.932 1142.57 393.281 1145.33 389.484 1145.33H372.478C369.836 1145.33 368.02 1143.95 366.699 1140.99L322.45 1039.51H317.662H256.407V1139.41C256.407 1142.96 254.425 1145.33 251.453 1145.33H235.603C232.631 1145.33 230.65 1142.96 230.65 1139.41V874.851C230.65 871.297 232.631 868.928 235.603 868.928H317.662C375.78 868.928 398.234 899.727 398.234 954.218C398.234 998.048 383.705 1026.48 347.877 1035.95ZM256.407 897.358V1011.08H319.313C351.014 1011.08 373.138 1000.42 373.138 954.218C373.138 908.019 351.014 897.358 319.313 897.358H256.407ZM667.385 1116.9C670.357 1116.9 672.338 1119.27 672.338 1122.82V1139.41C672.338 1142.96 670.357 1145.33 667.385 1145.33H527.043C524.071 1145.33 522.09 1142.96 522.09 1139.41V874.851C522.09 871.297 524.071 868.928 527.043 868.928H667.055C670.027 868.928 672.008 871.297 672.008 874.851V891.435C672.008 894.989 670.027 897.358 667.055 897.358H547.847V985.807H658.139C661.111 985.807 663.092 988.176 663.092 991.73V1008.31C663.092 1011.87 661.111 1014.24 658.139 1014.24H547.847V1116.9H667.385ZM958.825 873.666C959.981 870.112 961.797 868.928 964.439 868.928H980.289C983.922 868.928 985.573 871.692 984.252 875.64L899.717 1140.59C898.726 1143.75 896.414 1145.33 893.773 1145.33H877.262C874.62 1145.33 872.309 1143.75 871.318 1140.59L786.783 875.64C785.462 871.692 787.113 868.928 790.745 868.928H806.596C809.238 868.928 811.054 870.112 812.209 873.666L885.517 1107.82L958.825 873.666ZM1249.77 1116.9C1252.74 1116.9 1254.72 1119.27 1254.72 1122.82V1139.41C1254.72 1142.96 1252.74 1145.33 1249.77 1145.33H1109.43C1106.46 1145.33 1104.48 1142.96 1104.48 1139.41V874.851C1104.48 871.297 1106.46 868.928 1109.43 868.928H1249.44C1252.41 868.928 1254.39 871.297 1254.39 874.851V891.435C1254.39 894.989 1252.41 897.358 1249.44 897.358H1130.23V985.807H1240.52C1243.5 985.807 1245.48 988.176 1245.48 991.73V1008.31C1245.48 1011.87 1243.5 1014.24 1240.52 1014.24H1130.23V1116.9H1249.77ZM1566.64 1138.62C1567.96 1142.57 1566.31 1145.33 1562.67 1145.33H1546.82C1544.18 1145.33 1542.37 1144.15 1541.21 1140.59L1523.54 1084.13H1412.26L1394.59 1140.59C1393.44 1144.15 1391.62 1145.33 1388.98 1145.33H1373.13C1369.5 1145.33 1367.85 1142.57 1369.17 1138.62L1453.7 873.666C1454.69 870.507 1457.01 868.928 1459.65 868.928H1476.16C1478.8 868.928 1481.11 870.507 1482.1 873.666L1566.64 1138.62ZM1420.85 1056.49H1514.96L1467.9 906.44L1420.85 1056.49ZM1830.5 1116.9C1833.48 1116.9 1835.46 1119.27 1835.46 1122.82V1139.41C1835.46 1142.96 1833.48 1145.33 1830.5 1145.33H1691.81C1688.84 1145.33 1686.86 1142.96 1686.86 1139.41V874.851C1686.86 871.297 1688.84 868.928 1691.81 868.928H1707.66C1710.64 868.928 1712.62 871.297 1712.62 874.851V1116.9H1830.5ZM2133.5 868.928C2136.47 868.928 2138.46 871.297 2138.46 874.851V1033.59C2138.46 1111.77 2104.28 1151.06 2045.99 1151.06C1987.71 1151.06 1953.53 1111.77 1953.53 1033.59V874.851C1953.53 871.297 1955.52 868.928 1958.49 868.928H1974.34C1977.31 868.928 1979.29 871.297 1979.29 874.851V1033.59C1979.29 1094.39 2005.87 1122.23 2045.99 1122.23C2086.12 1122.23 2112.7 1094.39 2112.7 1033.59V874.851C2112.7 871.297 2114.68 868.928 2117.65 868.928H2133.5ZM2429.73 1138.22C2431.71 1142.17 2430.39 1145.33 2426.43 1145.33H2409.59C2406.95 1145.33 2404.96 1144.15 2403.64 1141.38L2343.21 1029.83L2282.78 1141.38C2281.46 1144.15 2279.48 1145.33 2276.84 1145.33H2260C2256.04 1145.33 2254.72 1142.17 2256.7 1138.22L2329.34 1004.17L2260 876.035C2258.02 872.087 2259.34 868.928 2263.3 868.928H2280.14C2282.78 868.928 2284.77 870.112 2286.09 872.876L2343.21 978.502L2400.34 872.876C2401.66 870.112 2403.64 868.928 2406.29 868.928H2423.13C2427.09 868.928 2428.41 872.087 2426.43 876.035L2357.08 1004.17L2429.73 1138.22ZM2735.2 868.928C2739.17 868.928 2740.65 872.087 2738.51 876.035L2650.83 1038.32V1139.41C2650.83 1142.96 2648.85 1145.33 2645.88 1145.33H2630.03C2627.06 1145.33 2625.08 1142.96 2625.08 1139.41V1038.32L2537.41 876.035C2535.26 872.087 2536.74 868.928 2540.71 868.928H2559.36C2562.01 868.928 2563.82 870.112 2565.31 872.876L2637.96 1007.52L2710.6 872.876C2712.09 870.112 2713.91 868.928 2716.55 868.928H2735.2Z" fill="url(#paint1_linear_117_11)"/>
<path d="M43.2329 1310.76L59.9171 1348.55C60.5869 1350.08 59.978 1351.1 58.5775 1351.1H52.3057C51.3314 1351.1 50.6616 1350.59 50.1745 1349.5L33.8556 1312.07H32.0898H9.49905V1348.92C9.49905 1350.23 8.76836 1351.1 7.67231 1351.1H1.82674C0.730696 1351.1 0 1350.23 0 1348.92V1251.35C0 1250.04 0.730696 1249.16 1.82674 1249.16H32.0898C53.5235 1249.16 61.8048 1260.52 61.8048 1280.62C61.8048 1296.78 56.4463 1307.27 43.2329 1310.76ZM9.49905 1259.65V1301.59H32.6987C44.3898 1301.59 52.5493 1297.66 52.5493 1280.62C52.5493 1263.58 44.3898 1259.65 32.6987 1259.65H9.49905ZM142.461 1340.62C143.558 1340.62 144.288 1341.49 144.288 1342.8V1348.92C144.288 1350.23 143.558 1351.1 142.461 1351.1H90.7038C89.6078 1351.1 88.8771 1350.23 88.8771 1348.92V1251.35C88.8771 1250.04 89.6078 1249.16 90.7038 1249.16H142.34C143.436 1249.16 144.166 1250.04 144.166 1251.35V1257.47C144.166 1258.78 143.436 1259.65 142.34 1259.65H98.3761V1292.27H139.052C140.148 1292.27 140.878 1293.14 140.878 1294.45V1300.57C140.878 1301.88 140.148 1302.75 139.052 1302.75H98.3761V1340.62H142.461ZM231.339 1250.91C231.765 1249.6 232.435 1249.16 233.409 1249.16H239.254C240.594 1249.16 241.203 1250.18 240.716 1251.64L209.539 1349.35C209.174 1350.52 208.322 1351.1 207.347 1351.1H201.258C200.284 1351.1 199.431 1350.52 199.066 1349.35L167.89 1251.64C167.403 1250.18 168.011 1249.16 169.351 1249.16H175.197C176.171 1249.16 176.841 1249.6 177.267 1250.91L204.303 1337.27L231.339 1250.91ZM320.033 1340.62C321.129 1340.62 321.86 1341.49 321.86 1342.8V1348.92C321.86 1350.23 321.129 1351.1 320.033 1351.1H268.275C267.179 1351.1 266.448 1350.23 266.448 1348.92V1251.35C266.448 1250.04 267.179 1249.16 268.275 1249.16H319.911C321.007 1249.16 321.738 1250.04 321.738 1251.35V1257.47C321.738 1258.78 321.007 1259.65 319.911 1259.65H275.948V1292.27H316.623C317.719 1292.27 318.45 1293.14 318.45 1294.45V1300.57C318.45 1301.88 317.719 1302.75 316.623 1302.75H275.948V1340.62H320.033ZM418.287 1348.63C418.774 1350.08 418.165 1351.1 416.826 1351.1H410.98C410.006 1351.1 409.336 1350.67 408.91 1349.35L402.395 1328.53H361.354L354.838 1349.35C354.412 1350.67 353.742 1351.1 352.768 1351.1H346.923C345.583 1351.1 344.974 1350.08 345.461 1348.63L376.638 1250.91C377.003 1249.75 377.855 1249.16 378.83 1249.16H384.919C385.893 1249.16 386.746 1249.75 387.111 1250.91L418.287 1348.63ZM364.52 1318.34H399.228L381.874 1263L364.52 1318.34ZM496.995 1340.62C498.092 1340.62 498.822 1341.49 498.822 1342.8V1348.92C498.822 1350.23 498.092 1351.1 496.995 1351.1H445.847C444.751 1351.1 444.02 1350.23 444.02 1348.92V1251.35C444.02 1250.04 444.751 1249.16 445.847 1249.16H451.692C452.788 1249.16 453.519 1250.04 453.519 1251.35V1340.62H496.995ZM650.941 1249.16C652.402 1249.16 652.95 1250.33 652.159 1251.79L619.826 1311.64V1348.92C619.826 1350.23 619.095 1351.1 617.999 1351.1H612.153C611.057 1351.1 610.326 1350.23 610.326 1348.92V1311.64L577.993 1251.79C577.202 1250.33 577.75 1249.16 579.211 1249.16H586.092C587.066 1249.16 587.736 1249.6 588.284 1250.62L615.076 1300.28L641.868 1250.62C642.416 1249.6 643.086 1249.16 644.06 1249.16H650.941ZM718.628 1353C694.515 1353 675.03 1329.7 675.03 1300.57C675.03 1271.3 694.515 1248 718.628 1248C742.619 1248 762.104 1271.3 762.104 1300.57C762.104 1329.7 742.619 1353 718.628 1353ZM718.628 1342.36C737.748 1342.36 752.849 1323.87 752.849 1300.57C752.849 1277.12 737.748 1258.63 718.628 1258.63C699.386 1258.63 684.285 1277.12 684.285 1300.57C684.285 1323.87 699.386 1342.36 718.628 1342.36ZM855.244 1249.16C856.34 1249.16 857.071 1250.04 857.071 1251.35V1309.89C857.071 1338.72 844.466 1353.21 822.971 1353.21C801.477 1353.21 788.872 1338.72 788.872 1309.89V1251.35C788.872 1250.04 789.603 1249.16 790.699 1249.16H796.545C797.641 1249.16 798.371 1250.04 798.371 1251.35V1309.89C798.371 1332.32 808.175 1342.58 822.971 1342.58C837.768 1342.58 847.571 1332.32 847.571 1309.89V1251.35C847.571 1250.04 848.302 1249.16 849.398 1249.16H855.244ZM929.507 1310.76L946.191 1348.55C946.861 1350.08 946.252 1351.1 944.852 1351.1H938.58C937.605 1351.1 936.936 1350.59 936.449 1349.5L920.13 1312.07H918.364H895.773V1348.92C895.773 1350.23 895.042 1351.1 893.946 1351.1H888.101C887.005 1351.1 886.274 1350.23 886.274 1348.92V1251.35C886.274 1250.04 887.005 1249.16 888.101 1249.16H918.364C939.798 1249.16 948.079 1260.52 948.079 1280.62C948.079 1296.78 942.72 1307.27 929.507 1310.76ZM895.773 1259.65V1301.59H918.973C930.664 1301.59 938.823 1297.66 938.823 1280.62C938.823 1263.58 930.664 1259.65 918.973 1259.65H895.773ZM1086.25 1340.62C1087.35 1340.62 1088.08 1341.49 1088.08 1342.8V1348.92C1088.08 1350.23 1087.35 1351.1 1086.25 1351.1H1035.1C1034.01 1351.1 1033.28 1350.23 1033.28 1348.92V1251.35C1033.28 1250.04 1034.01 1249.16 1035.1 1249.16H1040.95C1042.05 1249.16 1042.78 1250.04 1042.78 1251.35V1340.62H1086.25ZM1172.09 1259.65H1148.52V1340.62H1172.09C1173.18 1340.62 1173.91 1341.49 1173.91 1342.8V1348.92C1173.91 1350.23 1173.18 1351.1 1172.09 1351.1H1115.46C1114.36 1351.1 1113.63 1350.23 1113.63 1348.92V1342.8C1113.63 1341.49 1114.36 1340.62 1115.46 1340.62H1139.02V1259.65H1115.46C1114.36 1259.65 1113.63 1258.78 1113.63 1257.47V1251.35C1113.63 1250.04 1114.36 1249.16 1115.46 1249.16H1172.09C1173.18 1249.16 1173.91 1250.04 1173.91 1251.35V1257.47C1173.91 1258.78 1173.18 1259.65 1172.09 1259.65ZM1281.54 1298.53C1282.64 1298.53 1283.37 1299.41 1283.37 1300.72V1305.38C1283.37 1332.46 1268.51 1353 1244.28 1353C1219.68 1353 1201.29 1329.55 1201.29 1300.35C1201.29 1271.3 1219.92 1248 1244.16 1248C1255.79 1248 1265.04 1253.24 1272.9 1261.69C1273.75 1262.56 1273.87 1263.73 1273.02 1264.75L1269.24 1269.41C1268.39 1270.43 1267.54 1270.28 1266.69 1269.41C1260.42 1262.93 1253.35 1259.07 1244.16 1259.07C1225.77 1259.07 1210.91 1276.83 1210.91 1300.35C1210.91 1324.02 1225.52 1341.93 1244.28 1341.93C1261.51 1341.93 1273.87 1328.53 1274.36 1309.02H1245.62C1244.52 1309.02 1243.79 1308.14 1243.79 1306.83V1300.72C1243.79 1299.41 1244.52 1298.53 1245.62 1298.53H1281.54ZM1374.99 1249.16C1376.08 1249.16 1376.82 1250.04 1376.82 1251.35V1348.92C1376.82 1350.23 1376.08 1351.1 1374.99 1351.1H1369.14C1368.05 1351.1 1367.32 1350.23 1367.32 1348.92V1304.21H1321.77V1348.92C1321.77 1350.23 1321.04 1351.1 1319.94 1351.1H1314.1C1313 1351.1 1312.27 1350.23 1312.27 1348.92V1251.35C1312.27 1250.04 1313 1249.16 1314.1 1249.16H1319.94C1321.04 1249.16 1321.77 1250.04 1321.77 1251.35V1293.73H1367.32V1251.35C1367.32 1250.04 1368.05 1249.16 1369.14 1249.16H1374.99ZM1467.52 1249.16C1468.61 1249.16 1469.35 1250.04 1469.35 1251.35V1257.47C1469.35 1258.78 1468.61 1259.65 1467.52 1259.65H1441.21V1348.92C1441.21 1350.23 1440.48 1351.1 1439.39 1351.1H1433.54C1432.45 1351.1 1431.71 1350.23 1431.71 1348.92V1259.65H1405.41C1404.31 1259.65 1403.58 1258.78 1403.58 1257.47V1251.35C1403.58 1250.04 1404.31 1249.16 1405.41 1249.16H1467.52ZM1656.11 1249.16C1657.45 1249.16 1657.88 1250.18 1657.57 1251.64L1635.83 1349.35C1635.59 1350.52 1634.62 1351.1 1633.64 1351.1H1626.03C1625.06 1351.1 1624.14 1350.52 1623.84 1349.35L1603.56 1268.82L1583.29 1349.35C1582.98 1350.52 1582.07 1351.1 1581.09 1351.1H1573.48C1572.51 1351.1 1571.53 1350.52 1571.29 1349.35L1549.8 1251.64C1549.43 1250.11 1549.92 1249.16 1551.26 1249.16H1557.1C1558.08 1249.16 1558.93 1249.6 1559.17 1250.91L1577.32 1337.27L1598.75 1250.91C1598.93 1250.11 1599.3 1249.67 1599.73 1249.38C1599.97 1249.24 1600.34 1249.16 1600.7 1249.16H1606.42C1606.79 1249.16 1607.15 1249.24 1607.4 1249.38C1607.82 1249.67 1608.19 1250.11 1608.37 1250.91L1629.81 1337.27L1648.2 1250.91C1648.5 1249.6 1649.29 1249.16 1650.27 1249.16H1656.11ZM1741.4 1259.65H1717.83V1340.62H1741.4C1742.49 1340.62 1743.22 1341.49 1743.22 1342.8V1348.92C1743.22 1350.23 1742.49 1351.1 1741.4 1351.1H1684.77C1683.67 1351.1 1682.94 1350.23 1682.94 1348.92V1342.8C1682.94 1341.49 1683.67 1340.62 1684.77 1340.62H1708.33V1259.65H1684.77C1683.67 1259.65 1682.94 1258.78 1682.94 1257.47V1251.35C1682.94 1250.04 1683.67 1249.16 1684.77 1249.16H1741.4C1742.49 1249.16 1743.22 1250.04 1743.22 1251.35V1257.47C1743.22 1258.78 1742.49 1259.65 1741.4 1259.65ZM1832.4 1249.16C1833.5 1249.16 1834.23 1250.04 1834.23 1251.35V1257.47C1834.23 1258.78 1833.5 1259.65 1832.4 1259.65H1806.1V1348.92C1806.1 1350.23 1805.37 1351.1 1804.27 1351.1H1798.43C1797.33 1351.1 1796.6 1350.23 1796.6 1348.92V1259.65H1770.29C1769.2 1259.65 1768.47 1258.78 1768.47 1257.47V1251.35C1768.47 1250.04 1769.2 1249.16 1770.29 1249.16H1832.4ZM1923.72 1249.16C1924.81 1249.16 1925.54 1250.04 1925.54 1251.35V1348.92C1925.54 1350.23 1924.81 1351.1 1923.72 1351.1H1917.87C1916.78 1351.1 1916.04 1350.23 1916.04 1348.92V1304.21H1870.5V1348.92C1870.5 1350.23 1869.77 1351.1 1868.67 1351.1H1862.83C1861.73 1351.1 1861 1350.23 1861 1348.92V1251.35C1861 1250.04 1861.73 1249.16 1862.83 1249.16H1868.67C1869.77 1249.16 1870.5 1250.04 1870.5 1251.35V1293.73H1916.04V1251.35C1916.04 1250.04 1916.78 1249.16 1917.87 1249.16H1923.72ZM2082.23 1348.63C2082.72 1350.08 2082.11 1351.1 2080.77 1351.1H2074.92C2073.95 1351.1 2073.28 1350.67 2072.85 1349.35L2066.34 1328.53H2025.3L2018.78 1349.35C2018.35 1350.67 2017.68 1351.1 2016.71 1351.1H2010.86C2009.53 1351.1 2008.92 1350.08 2009.4 1348.63L2040.58 1250.91C2040.94 1249.75 2041.8 1249.16 2042.77 1249.16H2048.86C2049.84 1249.16 2050.69 1249.75 2051.05 1250.91L2082.23 1348.63ZM2028.46 1318.34H2063.17L2045.82 1263L2028.46 1318.34ZM2151.2 1310.76L2167.88 1348.55C2168.55 1350.08 2167.94 1351.1 2166.54 1351.1H2160.27C2159.29 1351.1 2158.62 1350.59 2158.14 1349.5L2141.82 1312.07H2140.05H2117.46V1348.92C2117.46 1350.23 2116.73 1351.1 2115.63 1351.1H2109.79C2108.69 1351.1 2107.96 1350.23 2107.96 1348.92V1251.35C2107.96 1250.04 2108.69 1249.16 2109.79 1249.16H2140.05C2161.49 1249.16 2169.77 1260.52 2169.77 1280.62C2169.77 1296.78 2164.41 1307.27 2151.2 1310.76ZM2117.46 1259.65V1301.59H2140.66C2152.35 1301.59 2160.51 1297.66 2160.51 1280.62C2160.51 1263.58 2152.35 1259.65 2140.66 1259.65H2117.46ZM2256.21 1249.16C2257.3 1249.16 2258.03 1250.04 2258.03 1251.35V1257.47C2258.03 1258.78 2257.3 1259.65 2256.21 1259.65H2229.9V1348.92C2229.9 1350.23 2229.17 1351.1 2228.08 1351.1H2222.23C2221.13 1351.1 2220.4 1350.23 2220.4 1348.92V1259.65H2194.1C2193 1259.65 2192.27 1258.78 2192.27 1257.47V1251.35C2192.27 1250.04 2193 1249.16 2194.1 1249.16H2256.21ZM2426.72 1249.16C2427.81 1249.16 2428.54 1250.04 2428.54 1251.35V1348.92C2428.54 1350.23 2427.81 1351.1 2426.72 1351.1H2420.87C2419.77 1351.1 2419.04 1350.23 2419.04 1348.92V1269.7L2390.67 1349.5C2390.3 1350.67 2389.57 1351.1 2388.6 1351.1H2382.63C2381.66 1351.1 2380.93 1350.67 2380.56 1349.5L2352.43 1270.43V1348.92C2352.43 1350.23 2351.7 1351.1 2350.6 1351.1H2344.76C2343.66 1351.1 2342.93 1350.23 2342.93 1348.92V1251.35C2342.93 1250.04 2343.66 1249.16 2344.76 1249.16H2352.55C2353.52 1249.16 2354.38 1249.6 2354.74 1250.62L2385.68 1338.43L2416.49 1250.62C2416.85 1249.6 2417.7 1249.16 2418.68 1249.16H2426.72ZM2513.46 1340.62C2514.56 1340.62 2515.29 1341.49 2515.29 1342.8V1348.92C2515.29 1350.23 2514.56 1351.1 2513.46 1351.1H2461.7C2460.61 1351.1 2459.88 1350.23 2459.88 1348.92V1251.35C2459.88 1250.04 2460.61 1249.16 2461.7 1249.16H2513.34C2514.44 1249.16 2515.17 1250.04 2515.17 1251.35V1257.47C2515.17 1258.78 2514.44 1259.65 2513.34 1259.65H2469.38V1292.27H2510.05C2511.15 1292.27 2511.88 1293.14 2511.88 1294.45V1300.57C2511.88 1301.88 2511.15 1302.75 2510.05 1302.75H2469.38V1340.62H2513.46ZM2565.44 1249.16C2595.03 1249.16 2610.01 1271.3 2610.01 1300.13C2610.01 1328.97 2595.03 1351.1 2565.44 1351.1H2546.32C2545.22 1351.1 2544.49 1350.23 2544.49 1348.92V1251.35C2544.49 1250.04 2545.22 1249.16 2546.32 1249.16H2565.44ZM2565.44 1340.62C2588.82 1340.62 2600.39 1325.18 2600.39 1300.13C2600.39 1275.09 2588.82 1259.65 2565.44 1259.65H2553.99V1340.62H2565.44ZM2693.71 1259.65H2670.15V1340.62H2693.71C2694.81 1340.62 2695.54 1341.49 2695.54 1342.8V1348.92C2695.54 1350.23 2694.81 1351.1 2693.71 1351.1H2637.08C2635.99 1351.1 2635.26 1350.23 2635.26 1348.92V1342.8C2635.26 1341.49 2635.99 1340.62 2637.08 1340.62H2660.65V1259.65H2637.08C2635.99 1259.65 2635.26 1258.78 2635.26 1257.47V1251.35C2635.26 1250.04 2635.99 1249.16 2637.08 1249.16H2693.71C2694.81 1249.16 2695.54 1250.04 2695.54 1251.35V1257.47C2695.54 1258.78 2694.81 1259.65 2693.71 1259.65ZM2790.87 1331.59L2794.65 1336.25C2795.5 1337.27 2795.38 1338.36 2794.52 1339.31C2786.67 1348.12 2777.41 1353 2765.78 1353C2741.55 1353 2722.92 1329.7 2722.92 1300.57C2722.92 1271.3 2741.55 1248 2765.78 1248C2777.41 1248 2786.67 1253.24 2794.52 1261.69C2795.38 1262.56 2795.5 1263.73 2794.65 1264.75L2790.87 1269.41C2790.02 1270.43 2789.17 1270.28 2788.31 1269.41C2782.04 1262.93 2774.98 1259.07 2765.78 1259.07C2747.39 1259.07 2732.54 1276.83 2732.54 1300.57C2732.54 1324.16 2747.39 1341.93 2765.78 1341.93C2774.98 1341.93 2782.04 1338.07 2788.31 1331.59C2789.17 1330.71 2790.02 1330.57 2790.87 1331.59ZM2890.47 1348.63C2890.95 1350.08 2890.34 1351.1 2889 1351.1H2883.16C2882.18 1351.1 2881.51 1350.67 2881.09 1349.35L2874.57 1328.53H2833.53L2827.02 1349.35C2826.59 1350.67 2825.92 1351.1 2824.95 1351.1H2819.1C2817.76 1351.1 2817.15 1350.08 2817.64 1348.63L2848.82 1250.91C2849.18 1249.75 2850.03 1249.16 2851.01 1249.16H2857.1C2858.07 1249.16 2858.92 1249.75 2859.29 1250.91L2890.47 1348.63ZM2836.7 1318.34H2871.41L2854.05 1263L2836.7 1318.34ZM2969.17 1340.62C2970.27 1340.62 2971 1341.49 2971 1342.8V1348.92C2971 1350.23 2970.27 1351.1 2969.17 1351.1H2918.02C2916.93 1351.1 2916.2 1350.23 2916.2 1348.92V1251.35C2916.2 1250.04 2916.93 1249.16 2918.02 1249.16H2923.87C2924.97 1249.16 2925.7 1250.04 2925.7 1251.35V1340.62H2969.17Z" fill="url(#paint2_linear_117_11)"/>
<defs>
<linearGradient id="paint0_linear_117_11" x1="1275.33" y1="0" x2="1702.82" y2="0" gradientUnits="userSpaceOnUse">
<stop stop-color="#FE8DC6"/>
<stop offset="1" stop-color="#FED1C7"/>
</linearGradient>
<linearGradient id="paint1_linear_117_11" x1="230.65" y1="868.928" x2="2739.49" y2="868.928" gradientUnits="userSpaceOnUse">
<stop stop-color="#FE8DC6"/>
<stop offset="1" stop-color="#FED1C7"/>
</linearGradient>
<linearGradient id="paint2_linear_117_11" x1="0" y1="1248" x2="2971" y2="1248" gradientUnits="userSpaceOnUse">
<stop stop-color="#FE8DC6"/>
<stop offset="1" stop-color="#FED1C7"/>
</linearGradient>
</defs>
</svg>
